RobotoSerifDisplay-RegularConditalic.ufo
<glyph name="exclam" format="2">
  <advance width="191"/>
  <unicode hex="0021"/>
  <outline>
    <contour>
      <point x="205" y="735" type="line"/>
      <point x="185" y="569"/>
      <point x="142" y="468"/>
      <point x="112" y="211" type="curve"/>
      <point x="84" y="211" type="line"/>
      <point x="115" y="468"/>
      <point x="98" y="568"/>
      <point x="119" y="735" type="curve"/>
    </contour>
    <component base="period" xOffset="-1"/>
  </outline>
</glyph>
<glyph name="ampersand" format="2">
  <advance width="510"/>
  <unicode hex="0026"/>
  <outline>
    <contour>
      <point x="460" y="0" type="line"/>
      <point x="464" y="31" type="line"/>
      <point x="456" y="31" type="line" smooth="yes"/>
      <point x="427" y="31"/>
      <point x="405" y="65"/>
      <point x="382" y="102" type="curve" smooth="yes"/>
      <point x="288" y="272"/>
      <point x="224" y="418"/>
      <point x="224" y="540" type="curve" smooth="yes"/>
      <point x="224" y="640"/>
      <point x="254" y="689"/>
      <point x="290" y="689" type="curve" smooth="yes"/>
      <point x="320" y="689"/>
      <point x="332" y="652"/>
      <point x="332" y="608" type="curve" smooth="yes"/>
      <point x="332" y="524"/>
      <point x="308" y="474"/>
      <point x="223" y="427" type="curve"/>
      <point x="235" y="408" type="line"/>
      <point x="336" y="456"/>
      <point x="393" y="522"/>
      <point x="393" y="600" type="curve" smooth="yes"/>
      <point x="393" y="670"/>
      <point x="357" y="718"/>
      <point x="291" y="718" type="curve" smooth="yes"/>
      <point x="207" y="718"/>
      <point x="154" y="646"/>
      <point x="149" y="533" type="curve" smooth="yes"/>
      <point x="143" y="369"/>
      <point x="247" y="183"/>
      <point x="349" y="0" type="curve"/>
    </contour>
    <contour>
      <point x="190" y="24" type="curve" smooth="yes"/>
      <point x="129" y="24"/>
      <point x="93" y="94"/>
      <point x="93" y="184" type="curve" smooth="yes"/>
      <point x="93" y="307"/>
      <point x="124" y="369"/>
      <point x="204" y="406" type="curve"/>
      <point x="192" y="423" type="line"/>
      <point x="81" y="383"/>
      <point x="12" y="306"/>
      <point x="12" y="177" type="curve" smooth="yes"/>
      <point x="12" y="74"/>
      <point x="72" y="-10"/>
      <point x="175" y="-10" type="curve" smooth="yes"/>
      <point x="322" y="-10"/>
      <point x="405" y="232"/>
      <point x="435" y="328" type="curve" smooth="yes"/>
      <point x="444" y="361"/>
      <point x="463" y="366"/>
      <point x="494" y="366" type="curve" smooth="yes"/>
      <point x="498" y="366" type="line"/>
      <point x="503" y="395" type="line"/>
      <point x="357" y="395" type="line"/>
      <point x="354" y="366" type="line"/>
      <point x="357" y="366" type="line" smooth="yes"/>
      <point x="378" y="366"/>
      <point x="408" y="363"/>
      <point x="408" y="356" type="curve"/>
      <point x="388" y="220"/>
      <point x="300" y="24"/>
    </contour>
  </outline>
</glyph>
<glyph name="parenleft" format="2">
  <advance width="217"/>
  <unicode hex="0028"/>
  <outline>
    <contour>
      <point x="83" y="248" type="curve" smooth="yes"/>
      <point x="83" y="77"/>
      <point x="123" y="-55"/>
      <point x="166" y="-127" type="curve"/>
      <point x="166" y="-130" type="line"/>
      <point x="143" y="-130" type="line"/>
      <point x="77" y="-41"/>
      <point x="21" y="94"/>
      <point x="21" y="254" type="curve" smooth="yes"/>
      <point x="21" y="487"/>
      <point x="132" y="652"/>
      <point x="239" y="750" type="curve"/>
      <point x="262" y="750" type="line"/>
      <point x="262" y="747" type="line"/>
      <point x="176" y="653"/>
      <point x="83" y="473"/>
    </contour>
  </outline>
</glyph>
<glyph name="comma" format="2">
  <advance width="183"/>
  <unicode hex="002C"/>
  <outline>
    <contour>
      <point x="59" y="-130" type="line"/>
      <point x="101" y="-92"/>
      <point x="137" y="-33"/>
      <point x="137" y="37" type="curve" smooth="yes"/>
      <point x="137" y="86"/>
      <point x="116" y="112"/>
      <point x="87" y="112" type="curve" smooth="yes"/>
      <point x="58" y="112"/>
      <point x="39" y="87"/>
      <point x="39" y="53" type="curve" smooth="yes"/>
      <point x="39" y="18"/>
      <point x="59" y="-3"/>
      <point x="84" y="-3" type="curve" smooth="yes"/>
      <point x="101" y="-3"/>
      <point x="116" y="11"/>
      <point x="118" y="33" type="curve"/>
      <point x="115" y="33"/>
      <point x="112" y="30"/>
      <point x="112" y="25" type="curve"/>
      <point x="101" y="-28"/>
      <point x="79" y="-64"/>
      <point x="30" y="-98" type="curve"/>
    </contour>
  </outline>
</glyph>
<glyph name="zero" format="2">
  <advance width="393"/>
  <unicode hex="0030"/>
  <outline>
    <contour>
      <point x="171" y="-10" type="curve" smooth="yes"/>
      <point x="299" y="-10"/>
      <point x="373" y="176"/>
      <point x="373" y="358" type="curve" smooth="yes"/>
      <point x="373" y="518"/>
      <point x="312" y="619"/>
      <point x="223" y="619" type="curve" smooth="yes"/>
      <point x="94" y="619"/>
      <point x="20" y="432"/>
      <point x="20" y="250" type="curve" smooth="yes"/>
      <point x="20" y="90"/>
      <point x="82" y="-10"/>
    </contour>
    <contour>
      <point x="169" y="21" type="curve" smooth="yes"/>
      <point x="121" y="21"/>
      <point x="99" y="96"/>
      <point x="99" y="217" type="curve" smooth="yes"/>
      <point x="99" y="271"/>
      <point x="104" y="330"/>
      <point x="114" y="385" type="curve" smooth="yes"/>
      <point x="134" y="500"/>
      <point x="169" y="588"/>
      <point x="224" y="588" type="curve" smooth="yes"/>
      <point x="273" y="588"/>
      <point x="295" y="513"/>
      <point x="295" y="391" type="curve" smooth="yes"/>
      <point x="295" y="339"/>
      <point x="289" y="283"/>
      <point x="280" y="230" type="curve" smooth="yes"/>
      <point x="261" y="112"/>
      <point x="224" y="21"/>
    </contour>
  </outline>
</glyph>
<glyph name="seven" format="2">
  <advance width="393"/>
  <unicode hex="0037"/>
  <outline>
    <contour>
      <point x="192" y="533" type="line" smooth="yes"/>
      <point x="134" y="533"/>
      <point x="111" y="522"/>
      <point x="98" y="469" type="curve" smooth="yes"/>
      <point x="76" y="387" type="line"/>
      <point x="52" y="387" type="line"/>
      <point x="80" y="609" type="line"/>
      <point x="415" y="609" type="line"/>
      <point x="407" y="551" type="line"/>
      <point x="301" y="389"/>
      <point x="227" y="233"/>
      <point x="171" y="-77" type="curve"/>
      <point x="93" y="-77" type="line"/>
      <point x="157" y="227"/>
      <point x="329" y="489"/>
      <point x="386" y="562" type="curve"/>
      <point x="384" y="533" type="line"/>
    </contour>
  </outline>
</glyph>
<glyph name="F" format="2">
  <advance width="418"/>
  <unicode hex="0046"/>
  <outline>
    <contour>
      <point x="-10" y="0" type="line"/>
      <point x="199" y="0" type="line"/>
      <point x="202" y="31" type="line"/>
      <point x="190" y="31" type="line" smooth="yes"/>
      <point x="165" y="31"/>
      <point x="134" y="34"/>
      <point x="137" y="57" type="curve" smooth="yes"/>
      <point x="213" y="675" type="line"/>
      <point x="304" y="675" type="line" smooth="yes"/>
      <point x="360" y="675"/>
      <point x="381" y="661"/>
      <point x="382" y="620" type="curve" smooth="yes"/>
      <point x="385" y="529" type="line"/>
      <point x="409" y="529" type="line"/>
      <point x="431" y="710" type="line"/>
      <point x="78" y="710" type="line"/>
      <point x="74" y="679" type="line"/>
      <point x="79" y="679" type="line" smooth="yes"/>
      <point x="108" y="679"/>
      <point x="129" y="671"/>
      <point x="126" y="642" type="curve" smooth="yes"/>
      <point x="55" y="64" type="line" smooth="yes"/>
      <point x="51" y="38"/>
      <point x="25" y="31"/>
      <point x="-2" y="31" type="curve" smooth="yes"/>
      <point x="-7" y="31" type="line"/>
    </contour>
    <contour>
      <point x="168" y="380" type="curve"/>
      <point x="163" y="345" type="line"/>
      <point x="241" y="343"/>
      <point x="281" y="344"/>
      <point x="322" y="324" type="curve"/>
      <point x="331" y="400" type="line"/>
      <point x="286" y="382"/>
      <point x="247" y="382"/>
    </contour>
  </outline>
</glyph>
<glyph name="H" format="2">
  <advance width="548"/>
  <unicode hex="0048"/>
  <anchor x="273" y="741" name="top"/>
  <anchor x="273" y="0" name="bottom"/>
  <outline>
    <contour>
      <point x="147" y="383" type="line"/>
      <point x="142" y="349" type="line"/>
      <point x="413" y="349" type="line"/>
      <point x="417" y="383" type="line"/>
    </contour>
    <contour>
      <point x="-10" y="0" type="line"/>
      <point x="186" y="0" type="line"/>
      <point x="190" y="31" type="line"/>
      <point x="184" y="31" type="line" smooth="yes"/>
      <point x="162" y="31"/>
      <point x="134" y="34"/>
      <point x="135" y="41" type="curve" smooth="yes"/>
      <point x="212" y="670" type="line" smooth="yes"/>
      <point x="213" y="676"/>
      <point x="242" y="679"/>
      <point x="264" y="679" type="curve" smooth="yes"/>
      <point x="270" y="679" type="line"/>
      <point x="274" y="710" type="line"/>
      <point x="78" y="710" type="line"/>
      <point x="74" y="679" type="line"/>
      <point x="79" y="679" type="line" smooth="yes"/>
      <point x="103" y="679"/>
      <point x="129" y="673"/>
      <point x="127" y="649" type="curve" smooth="yes"/>
      <point x="55" y="62" type="line" smooth="yes"/>
      <point x="51" y="36"/>
      <point x="25" y="31"/>
      <point x="-2" y="31" type="curve" smooth="yes"/>
      <point x="-7" y="31" type="line"/>
    </contour>
    <contour>
      <point x="281" y="0" type="line"/>
      <point x="478" y="0" type="line"/>
      <point x="482" y="31" type="line"/>
      <point x="477" y="31" type="line" smooth="yes"/>
      <point x="449" y="31"/>
      <point x="426" y="38"/>
      <point x="429" y="66" type="curve" smooth="yes"/>
      <point x="500" y="643" type="line" smooth="yes"/>
      <point x="503" y="672"/>
      <point x="529" y="679"/>
      <point x="557" y="679" type="curve" smooth="yes"/>
      <point x="562" y="679" type="line"/>
      <point x="566" y="710" type="line"/>
      <point x="369" y="710" type="line"/>
      <point x="365" y="679" type="line"/>
      <point x="371" y="679" type="line" smooth="yes"/>
      <point x="393" y="679"/>
      <point x="422" y="676"/>
      <point x="421" y="670" type="curve" smooth="yes"/>
      <point x="343" y="41" type="line" smooth="yes"/>
      <point x="342" y="34"/>
      <point x="313" y="31"/>
      <point x="291" y="31" type="curve" smooth="yes"/>
      <point x="285" y="31" type="line"/>
    </contour>
  </outline>
</glyph>
<glyph name="W" format="2">
  <advance width="681"/>
  <unicode hex="0057"/>
  <anchor x="333" y="741" name="top"/>
  <outline>
    <contour>
      <point x="55" y="710" type="line"/>
      <point x="51" y="679" type="line"/>
      <point x="55" y="679" type="line" smooth="yes"/>
      <point x="75" y="679"/>
      <point x="90" y="675"/>
      <point x="91" y="647" type="curve" smooth="yes"/>
      <point x="118" y="0" type="line"/>
      <point x="183" y="0" type="line"/>
      <point x="382" y="611" type="line"/>
      <point x="367" y="611" type="line"/>
      <point x="409" y="0" type="line"/>
      <point x="474" y="0" type="line"/>
      <point x="654" y="608" type="line" smooth="yes"/>
      <point x="668" y="658"/>
      <point x="690" y="679"/>
      <point x="713" y="679" type="curve" smooth="yes"/>
      <point x="717" y="679" type="line"/>
      <point x="721" y="710" type="line"/>
      <point x="577" y="710" type="line"/>
      <point x="574" y="679" type="line"/>
      <point x="594" y="679" type="line" smooth="yes"/>
      <point x="630" y="679"/>
      <point x="638" y="667"/>
      <point x="637" y="655" type="curve"/>
      <point x="466" y="60" type="line"/>
      <point x="480" y="60" type="line"/>
      <point x="437" y="710" type="line"/>
      <point x="391" y="710" type="line"/>
      <point x="175" y="55" type="line"/>
      <point x="190" y="55" type="line"/>
      <point x="171" y="669" type="line"/>
      <point x="172" y="676"/>
      <point x="200" y="679"/>
      <point x="226" y="679" type="curve" smooth="yes"/>
      <point x="240" y="679" type="line"/>
      <point x="244" y="710" type="line"/>
    </contour>
  </outline>
</glyph>
<glyph name="Z" format="2">
  <advance width="437"/>
  <unicode hex="005A"/>
  <anchor x="237" y="741" name="top"/>
  <anchor x="237" y="0" name="bottom"/>
  <outline>
    <contour>
      <point x="46" y="35" type="line"/>
      <point x="67" y="13" type="line"/>
      <point x="442" y="668" type="line"/>
      <point x="448" y="710" type="line"/>
      <point x="89" y="710" type="line"/>
      <point x="66" y="528" type="line"/>
      <point x="90" y="528" type="line"/>
      <point x="115" y="620" type="line" smooth="yes"/>
      <point x="127" y="661"/>
      <point x="150" y="675"/>
      <point x="207" y="675" type="curve" smooth="yes"/>
      <point x="385" y="675" type="line"/>
      <point x="363" y="690" type="line"/>
      <point x="-5" y="45" type="line"/>
      <point x="-10" y="0" type="line"/>
      <point x="368" y="0" type="line"/>
      <point x="394" y="212" type="line"/>
      <point x="369" y="212" type="line"/>
      <point x="340" y="93" type="line" smooth="yes"/>
      <point x="330" y="49"/>
      <point x="306" y="35"/>
      <point x="246" y="35" type="curve" smooth="yes"/>
    </contour>
  </outline>
</glyph>
<glyph name="asciicircum" format="2">
  <advance width="350"/>
  <unicode hex="005E"/>
  <outline>
    <contour>
      <point x="83" y="363" type="line"/>
      <point x="226" y="685" type="line"/>
      <point x="229" y="710" type="line"/>
      <point x="207" y="710" type="line"/>
      <point x="50" y="363" type="line"/>
    </contour>
    <contour>
      <point x="275" y="363" type="line"/>
      <point x="305" y="363" type="line"/>
      <point x="236" y="710" type="line"/>
      <point x="216" y="710" type="line"/>
      <point x="213" y="686" type="line"/>
    </contour>
  </outline>
</glyph>
<glyph name="underscore" format="2">
  <advance width="313"/>
  <unicode hex="005F"/>
  <outline>
    <contour>
      <point x="-20" y="-94" type="line"/>
      <point x="-26" y="-141" type="line"/>
      <point x="295" y="-141" type="line"/>
      <point x="301" y="-94" type="line"/>
    </contour>
  </outline>
</glyph>
<glyph name="a" format="2">
  <advance width="417"/>
  <unicode hex="0061"/>
  <anchor x="185" y="518" name="top"/>
  <anchor x="355" y="-10" name="right"/>
  <anchor x="215" y="0" name="bottom"/>
  <outline>
    <contour>
      <point x="324" y="-10" type="curve" smooth="yes"/>
      <point x="355" y="-10"/>
      <point x="381" y="10"/>
      <point x="395" y="28" type="curve"/>
      <point x="401" y="60" type="line"/>
      <point x="389" y="49"/>
      <point x="371" y="31"/>
      <point x="351" y="31" type="curve" smooth="yes"/>
      <point x="334" y="31"/>
      <point x="327" y="41"/>
      <point x="327" y="67" type="curve" smooth="yes"/>
      <point x="327" y="74"/>
      <point x="329" y="86"/>
      <point x="331" y="99" type="curve" smooth="yes"/>
      <point x="383" y="522" type="line"/>
      <point x="345" y="522" type="line"/>
      <point x="306" y="469" type="line"/>
      <point x="297" y="466" type="line"/>
      <point x="254" y="123" type="line"/>
      <point x="259" y="122" type="line"/>
      <point x="256" y="110"/>
      <point x="253" y="95"/>
      <point x="253" y="84" type="curve" smooth="yes"/>
      <point x="253" y="20"/>
      <point x="281" y="-10"/>
    </contour>
    <contour>
      <point x="145" y="-10" type="curve" smooth="yes"/>
      <point x="222" y="-10"/>
      <point x="257" y="93"/>
      <point x="302" y="227" type="curve"/>
      <point x="284" y="246" type="line"/>
      <point x="251" y="136"/>
      <point x="219" y="33"/>
      <point x="164" y="33" type="curve" smooth="yes"/>
      <point x="129" y="33"/>
      <point x="106" y="78"/>
      <point x="106" y="174" type="curve" smooth="yes"/>
      <point x="106" y="319"/>
      <point x="154" y="490"/>
      <point x="234" y="490" type="curve" smooth="yes"/>
      <point x="277" y="490"/>
      <point x="306" y="454"/>
      <point x="329" y="387" type="curve"/>
      <point x="341" y="417" type="line"/>
      <point x="319" y="483"/>
      <point x="280" y="528"/>
      <point x="226" y="528" type="curve" smooth="yes"/>
      <point x="94" y="528"/>
      <point x="24" y="344"/>
      <point x="24" y="188" type="curve" smooth="yes"/>
      <point x="24" y="60"/>
      <point x="77" y="-10"/>
    </contour>
  </outline>
</glyph>
<glyph name="q" format="2">
  <advance width="411"/>
  <unicode hex="0071"/>
  <outline>
    <contour>
      <point x="158" y="-223" type="line"/>
      <point x="358" y="-223" type="line"/>
      <point x="362" y="-193" type="line"/>
      <point x="361" y="-193" type="line"/>
      <point x="323" y="-193"/>
      <point x="308" y="-186"/>
      <point x="312" y="-157" type="curve" smooth="yes"/>
      <point x="396" y="522" type="line"/>
      <point x="359" y="522" type="line"/>
      <point x="315" y="451" type="line"/>
      <point x="309" y="449" type="line"/>
      <point x="230" y="-182" type="line" smooth="yes"/>
      <point x="229" y="-189"/>
      <point x="198" y="-193"/>
      <point x="171" y="-193" type="curve" smooth="yes"/>
      <point x="162" y="-193" type="line"/>
    </contour>
    <contour>
      <point x="24" y="188" type="curve" smooth="yes"/>
      <point x="24" y="71"/>
      <point x="74" y="-10"/>
      <point x="150" y="-10" type="curve" smooth="yes"/>
      <point x="228" y="-10"/>
      <point x="264" y="84"/>
      <point x="302" y="212" type="curve"/>
      <point x="288" y="232" type="line"/>
      <point x="257" y="127"/>
      <point x="228" y="33"/>
      <point x="171" y="33" type="curve" smooth="yes"/>
      <point x="128" y="33"/>
      <point x="106" y="90"/>
      <point x="106" y="174" type="curve" smooth="yes"/>
      <point x="106" y="318"/>
      <point x="151" y="490"/>
      <point x="234" y="490" type="curve" smooth="yes"/>
      <point x="278" y="490"/>
      <point x="310" y="456"/>
      <point x="335" y="385" type="curve"/>
      <point x="350" y="413" type="line"/>
      <point x="328" y="475"/>
      <point x="286" y="528"/>
      <point x="227" y="528" type="curve" smooth="yes"/>
      <point x="93" y="528"/>
      <point x="24" y="343"/>
    </contour>
  </outline>
</glyph>
<glyph name="v" format="2">
  <advance width="369"/>
  <unicode hex="0076"/>
  <outline>
    <contour>
      <point x="141" y="518" type="line"/>
      <point x="173" y="14" type="line"/>
      <point x="154" y="20" type="line"/>
      <point x="257" y="178"/>
      <point x="305" y="360"/>
      <point x="298" y="518" type="curve"/>
      <point x="365" y="518" type="line"/>
      <point x="365" y="518" type="line"/>
      <point x="354" y="355"/>
      <point x="267" y="146"/>
      <point x="169" y="0" type="curve"/>
      <point x="102" y="0" type="line"/>
      <point x="70" y="424" type="line" smooth="yes"/>
      <point x="67" y="468"/>
      <point x="54" y="477"/>
      <point x="22" y="486" type="curve" smooth="yes"/>
      <point x="15" y="488" type="line"/>
      <point x="18" y="518" type="line"/>
    </contour>
  </outline>
</glyph>
<glyph name="ordfeminine" format="2">
  <advance width="339"/>
  <unicode hex="00AA"/>
  <outline>
    <contour>
      <point x="278" y="310" type="curve" smooth="yes"/>
      <point x="302" y="310"/>
      <point x="323" y="325"/>
      <point x="333" y="336" type="curve"/>
      <point x="337" y="366" type="line"/>
      <point x="327" y="357"/>
      <point x="315" y="344"/>
      <point x="301" y="344" type="curve" smooth="yes"/>
      <point x="288" y="344"/>
      <point x="283" y="350"/>
      <point x="283" y="367" type="curve" smooth="yes"/>
      <point x="283" y="375"/>
      <point x="283" y="383"/>
      <point x="286" y="415" type="curve" smooth="yes"/>
      <point x="324" y="716" type="line"/>
      <point x="285" y="716" type="line"/>
      <point x="254" y="675" type="line"/>
      <point x="248" y="673" type="line"/>
      <point x="215" y="411" type="line"/>
      <point x="220" y="412" type="line"/>
      <point x="218" y="410"/>
      <point x="217" y="387"/>
      <point x="217" y="377" type="curve" smooth="yes"/>
      <point x="217" y="331"/>
      <point x="241" y="310"/>
    </contour>
    <contour>
      <point x="129" y="310" type="curve" smooth="yes"/>
      <point x="188" y="310"/>
      <point x="217" y="389"/>
      <point x="251" y="491" type="curve"/>
      <point x="237" y="508" type="line"/>
      <point x="212" y="425"/>
      <point x="188" y="347"/>
      <point x="144" y="347" type="curve" smooth="yes"/>
      <point x="124" y="347"/>
      <point x="110" y="381"/>
      <point x="110" y="452" type="curve" smooth="yes"/>
      <point x="110" y="563"/>
      <point x="142" y="691"/>
      <point x="201" y="691" type="curve" smooth="yes"/>
      <point x="233" y="691"/>
      <point x="253" y="663"/>
      <point x="271" y="610" type="curve"/>
      <point x="283" y="635" type="line"/>
      <point x="266" y="685"/>
      <point x="237" y="720"/>
      <point x="196" y="720" type="curve" smooth="yes"/>
      <point x="92" y="720"/>
      <point x="37" y="580"/>
      <point x="37" y="461" type="curve" smooth="yes"/>
      <point x="37" y="364"/>
      <point x="78" y="310"/>
    </contour>
  </outline>
</glyph>
<glyph name="cedilla" format="2">
  <advance width="422"/>
  <unicode hex="00B8"/>
  <anchor x="224" y="34" name="_bottom"/>
  <outline>
    <contour>
      <point x="172" y="-236" type="curve" smooth="yes"/>
      <point x="222" y="-236"/>
      <point x="258" y="-206"/>
      <point x="258" y="-150" type="curve" smooth="yes"/>
      <point x="258" y="-104"/>
      <point x="227" y="-73"/>
      <point x="169" y="-67" type="curve"/>
      <point x="169" y="-80" type="line"/>
      <point x="209" y="4" type="line"/>
      <point x="177" y="4" type="line"/>
      <point x="136" y="-95" type="line"/>
      <point x="151" y="-95" type="line" smooth="yes"/>
      <point x="186" y="-95"/>
      <point x="200" y="-128"/>
      <point x="200" y="-151" type="curve" smooth="yes"/>
      <point x="200" y="-180"/>
      <point x="188" y="-205"/>
      <point x="161" y="-205" type="curve" smooth="yes"/>
      <point x="136" y="-205"/>
      <point x="119" y="-185"/>
      <point x="106" y="-149" type="curve"/>
      <point x="88" y="-168" type="line"/>
      <point x="102" y="-209"/>
      <point x="129" y="-236"/>
    </contour>
  </outline>
</glyph>
<glyph name="Thorn" format="2">
  <advance width="442"/>
  <unicode hex="00DE"/>
  <outline>
    <contour>
      <point x="159" y="528" type="line"/>
      <point x="258" y="528" type="line" smooth="yes"/>
      <point x="320" y="528"/>
      <point x="352" y="480"/>
      <point x="352" y="386" type="curve" smooth="yes"/>
      <point x="352" y="274"/>
      <point x="309" y="191"/>
      <point x="222" y="191" type="curve" smooth="yes"/>
      <point x="132" y="191" type="line"/>
      <point x="131" y="157" type="line"/>
      <point x="225" y="157" type="line" smooth="yes"/>
      <point x="359" y="157"/>
      <point x="437" y="254"/>
      <point x="437" y="377" type="curve" smooth="yes"/>
      <point x="437" y="497"/>
      <point x="374" y="562"/>
      <point x="267" y="562" type="curve" smooth="yes"/>
      <point x="160" y="562" type="line"/>
    </contour>
    <contour>
      <point x="55" y="64" type="line" smooth="yes"/>
      <point x="51" y="38"/>
      <point x="25" y="31"/>
      <point x="-2" y="31" type="curve" smooth="yes"/>
      <point x="-7" y="31" type="line"/>
      <point x="-10" y="0" type="line"/>
      <point x="197" y="0" type="line"/>
      <point x="200" y="31" type="line"/>
      <point x="189" y="31" type="line" smooth="yes"/>
      <point x="164" y="31"/>
      <point x="135" y="35"/>
      <point x="137" y="56" type="curve" smooth="yes"/>
      <point x="209" y="642" type="line" smooth="yes"/>
      <point x="212" y="672"/>
      <point x="238" y="679"/>
      <point x="266" y="679" type="curve" smooth="yes"/>
      <point x="270" y="679" type="line"/>
      <point x="274" y="710" type="line"/>
      <point x="78" y="710" type="line"/>
      <point x="74" y="679" type="line"/>
      <point x="79" y="679" type="line" smooth="yes"/>
      <point x="103" y="679"/>
      <point x="129" y="672"/>
      <point x="127" y="647" type="curve" smooth="yes"/>
    </contour>
  </outline>
</glyph>
<glyph name="ae" format="2">
  <advance width="574"/>
  <unicode hex="00E6"/>
  <anchor x="290" y="518" name="top"/>
  <outline>
    <contour>
      <point x="402" y="-10" type="curve" smooth="yes"/>
      <point x="469" y="-10"/>
      <point x="521" y="35"/>
      <point x="551" y="133" type="curve"/>
      <point x="529" y="154" type="line"/>
      <point x="507" y="78"/>
      <point x="471" y="28"/>
      <point x="417" y="28" type="curve" smooth="yes"/>
      <point x="363" y="28"/>
      <point x="328" y="92"/>
      <point x="328" y="215" type="curve" smooth="yes"/>
      <point x="328" y="373"/>
      <point x="378" y="495"/>
      <point x="451" y="495" type="curve" smooth="yes"/>
      <point x="481" y="495"/>
      <point x="495" y="463"/>
      <point x="495" y="428" type="curve" smooth="yes"/>
      <point x="495" y="331"/>
      <point x="441" y="300"/>
      <point x="309" y="244" type="curve"/>
      <point x="305" y="214" type="line"/>
      <point x="448" y="270"/>
      <point x="564" y="315"/>
      <point x="564" y="418" type="curve" smooth="yes"/>
      <point x="564" y="474"/>
      <point x="525" y="528"/>
      <point x="454" y="528" type="curve" smooth="yes"/>
      <point x="377" y="528"/>
      <point x="324" y="471"/>
      <point x="291" y="384" type="curve"/>
      <point x="267" y="346"/>
      <point x="246" y="298"/>
      <point x="246" y="222" type="curve" smooth="yes"/>
      <point x="246" y="73"/>
      <point x="311" y="-10"/>
    </contour>
    <contour>
      <point x="251" y="288" type="line"/>
      <point x="322" y="337" type="line"/>
      <point x="325" y="363" type="line" smooth="yes"/>
      <point x="337" y="478"/>
      <point x="288" y="528"/>
      <point x="207" y="528" type="curve" smooth="yes"/>
      <point x="147" y="528"/>
      <point x="98" y="494"/>
      <point x="77" y="474" type="curve"/>
      <point x="65" y="382" type="line"/>
      <point x="131" y="382" type="line"/>
      <point x="144" y="491" type="line"/>
      <point x="128" y="494"/>
      <point x="107" y="472"/>
      <point x="101" y="422" type="curve"/>
      <point x="123" y="464"/>
      <point x="154" y="495"/>
      <point x="201" y="495" type="curve" smooth="yes"/>
      <point x="244" y="495"/>
      <point x="263" y="471"/>
      <point x="263" y="410" type="curve" smooth="yes"/>
      <point x="263" y="397"/>
      <point x="262" y="382"/>
      <point x="260" y="365" type="curve"/>
    </contour>
    <contour>
      <point x="128" y="-10" type="curve" smooth="yes"/>
      <point x="193" y="-10"/>
      <point x="243" y="43"/>
      <point x="276" y="138" type="curve"/>
      <point x="260" y="157" type="line"/>
      <point x="233" y="79"/>
      <point x="198" y="28"/>
      <point x="151" y="28" type="curve" smooth="yes"/>
      <point x="119" y="28"/>
      <point x="99" y="56"/>
      <point x="99" y="110" type="curve" smooth="yes"/>
      <point x="99" y="207"/>
      <point x="143" y="247"/>
      <point x="267" y="278" type="curve"/>
      <point x="271" y="308" type="line"/>
      <point x="93" y="262"/>
      <point x="23" y="218"/>
      <point x="23" y="106" type="curve" smooth="yes"/>
      <point x="23" y="30"/>
      <point x="66" y="-10"/>
    </contour>
  </outline>
</glyph>
<glyph name="icircumflex" format="2">
  <advance width="214"/>
  <unicode hex="00EE"/>
  <outline>
    <contour>
      <point x="180" y="748" type="line"/>
      <point x="238" y="590" type="line"/>
      <point x="237" y="580" type="line"/>
      <point x="218" y="580" type="line"/>
      <point x="133" y="700" type="line"/>
      <point x="160" y="697" type="line"/>
      <point x="50" y="580" type="line"/>
      <point x="25" y="580" type="line"/>
      <point x="26" y="590" type="line"/>
      <point x="123" y="748" type="line"/>
    </contour>
    <component base="dotlessi"/>
  </outline>
</glyph>
<glyph name="idieresis" format="2">
  <advance width="214"/>
  <unicode hex="00EF"/>
  <outline>
    <contour>
      <point x="72" y="626" type="curve" smooth="yes"/>
      <point x="99" y="626"/>
      <point x="119" y="650"/>
      <point x="119" y="689" type="curve" smooth="yes"/>
      <point x="119" y="727"/>
      <point x="99" y="750"/>
      <point x="72" y="750" type="curve" smooth="yes"/>
      <point x="44" y="750"/>
      <point x="24" y="727"/>
      <point x="24" y="689" type="curve" smooth="yes"/>
      <point x="24" y="650"/>
      <point x="44" y="626"/>
    </contour>
    <contour>
      <point x="212" y="626" type="curve" smooth="yes"/>
      <point x="241" y="626"/>
      <point x="260" y="650"/>
      <point x="260" y="689" type="curve" smooth="yes"/>
      <point x="260" y="727"/>
      <point x="241" y="750"/>
      <point x="212" y="750" type="curve" smooth="yes"/>
      <point x="184" y="750"/>
      <point x="164" y="727"/>
      <point x="164" y="689" type="curve" smooth="yes"/>
      <point x="164" y="650"/>
      <point x="184" y="626"/>
    </contour>
    <component base="dotlessi"/>
  </outline>
</glyph>
<glyph name="eogonek" format="2">
  <advance width="352"/>
  <unicode hex="0119"/>
  <outline>
    <contour>
      <point x="183" y="-237" type="curve" smooth="yes"/>
      <point x="222" y="-237"/>
      <point x="247" y="-217"/>
      <point x="264" y="-191" type="curve"/>
      <point x="254" y="-170" type="line"/>
      <point x="242" y="-187"/>
      <point x="228" y="-200"/>
      <point x="210" y="-200" type="curve" smooth="yes"/>
      <point x="192" y="-200"/>
      <point x="177" y="-184"/>
      <point x="177" y="-151" type="curve" smooth="yes"/>
      <point x="177" y="-89"/>
      <point x="209" y="-53"/>
      <point x="277" y="32" type="curve" smooth="yes"/>
      <point x="302" y="63"/>
      <point x="318" y="95"/>
      <point x="330" y="133" type="curve"/>
      <point x="308" y="154" type="line"/>
      <point x="286" y="79"/>
      <point x="249" y="28"/>
      <point x="196" y="28" type="curve" smooth="yes"/>
      <point x="142" y="28"/>
      <point x="107" y="92"/>
      <point x="107" y="215" type="curve" smooth="yes"/>
      <point x="107" y="372"/>
      <point x="156" y="495"/>
      <point x="230" y="495" type="curve" smooth="yes"/>
      <point x="260" y="495"/>
      <point x="274" y="463"/>
      <point x="274" y="427" type="curve" smooth="yes"/>
      <point x="274" y="331"/>
      <point x="220" y="300"/>
      <point x="88" y="244" type="curve"/>
      <point x="84" y="214" type="line"/>
      <point x="227" y="270"/>
      <point x="342" y="315"/>
      <point x="342" y="418" type="curve" smooth="yes"/>
      <point x="342" y="474"/>
      <point x="304" y="528"/>
      <point x="233" y="528" type="curve" smooth="yes"/>
      <point x="109" y="528"/>
      <point x="24" y="391"/>
      <point x="24" y="226" type="curve" smooth="yes"/>
      <point x="24" y="74"/>
      <point x="90" y="-10"/>
      <point x="181" y="-10" type="curve" smooth="yes"/>
      <point x="201" y="-10"/>
      <point x="220" y="-5"/>
      <point x="237" y="4" type="curve"/>
      <point x="238" y="24" type="line"/>
      <point x="164" y="-42"/>
      <point x="109" y="-85"/>
      <point x="109" y="-155" type="curve" smooth="yes"/>
      <point x="109" y="-207"/>
      <point x="140" y="-237"/>
    </contour>
  </outline>
</glyph>
<glyph name="imacron" format="2">
  <advance width="214"/>
  <unicode hex="012B"/>
  <outline>
    <contour>
      <point x="48" y="686" type="line"/>
      <point x="43" y="650" type="line"/>
      <point x="226" y="650" type="line"/>
      <point x="231" y="686" type="line"/>
    </contour>
    <component base="dotlessi"/>
  </outline>
</glyph>
<glyph name="OE" format="2">
  <advance width="702"/>
  <unicode hex="0152"/>
  <outline>
    <contour>
      <point x="435" y="380" type="curve"/>
      <point x="430" y="346" type="line"/>
      <point x="506" y="344"/>
      <point x="544" y="343"/>
      <point x="583" y="324" type="curve"/>
      <point x="592" y="400" type="line"/>
      <point x="549" y="383"/>
      <point x="511" y="383"/>
    </contour>
    <contour>
      <point x="654" y="206" type="line"/>
      <point x="629" y="206" type="line"/>
      <point x="600" y="93" type="line" smooth="yes"/>
      <point x="589" y="49"/>
      <point x="565" y="35"/>
      <point x="506" y="35" type="curve" smooth="yes"/>
      <point x="400" y="35" type="line"/>
      <point x="479" y="675" type="line"/>
      <point x="568" y="675" type="line" smooth="yes"/>
      <point x="625" y="675"/>
      <point x="646" y="661"/>
      <point x="647" y="620" type="curve"/>
      <point x="650" y="529" type="line"/>
      <point x="674" y="529" type="line"/>
      <point x="695" y="710" type="line"/>
      <point x="343" y="710" type="line" smooth="yes"/>
      <point x="142" y="710"/>
      <point x="25" y="540"/>
      <point x="25" y="317" type="curve" smooth="yes"/>
      <point x="25" y="118"/>
      <point x="127" y="0"/>
      <point x="281" y="0" type="curve" smooth="yes"/>
      <point x="628" y="0" type="line"/>
    </contour>
    <contour>
      <point x="288" y="35" type="line" smooth="yes"/>
      <point x="169" y="35"/>
      <point x="113" y="130"/>
      <point x="113" y="304" type="curve" smooth="yes"/>
      <point x="113" y="534"/>
      <point x="201" y="675"/>
      <point x="342" y="675" type="curve" smooth="yes"/>
      <point x="396" y="675" type="line"/>
      <point x="318" y="35" type="line"/>
    </contour>
  </outline>
</glyph>
<glyph name="tbar" format="2">
  <advance width="261"/>
  <unicode hex="0167"/>
  <outline>
    <contour>
      <point x="240" y="328" type="line"/>
      <point x="24" y="328" type="line"/>
      <point x="20" y="295" type="line"/>
      <point x="235" y="295" type="line"/>
    </contour>
    <component base="t"/>
  </outline>
</glyph>
<glyph name="uhorn" format="2">
  <advance width="440"/>
  <unicode hex="01B0"/>
  <anchor x="174" y="518" name="top"/>
  <outline>
    <contour>
      <point x="46" y="518" type="line"/>
      <point x="42" y="488" type="line"/>
      <point x="50" y="486" type="line" smooth="yes"/>
      <point x="80" y="477"/>
      <point x="95" y="470"/>
      <point x="91" y="442" type="curve" smooth="yes"/>
      <point x="55" y="170" type="line" smooth="yes"/>
      <point x="53" y="150"/>
      <point x="51" y="131"/>
      <point x="51" y="110" type="curve" smooth="yes"/>
      <point x="51" y="40"/>
      <point x="80" y="-10"/>
      <point x="138" y="-10" type="curve" smooth="yes"/>
      <point x="209" y="-10"/>
      <point x="244" y="63"/>
      <point x="291" y="211" type="curve"/>
      <point x="281" y="237" type="line"/>
      <point x="241" y="98"/>
      <point x="208" y="34"/>
      <point x="165" y="34" type="curve" smooth="yes"/>
      <point x="137" y="34"/>
      <point x="129" y="61"/>
      <point x="129" y="96" type="curve" smooth="yes"/>
      <point x="129" y="116"/>
      <point x="132" y="142"/>
      <point x="134" y="163" type="curve" smooth="yes"/>
      <point x="179" y="518" type="line"/>
    </contour>
    <contour>
      <point x="388" y="518" type="line"/>
      <point x="361" y="496" type="line"/>
      <point x="443" y="501"/>
      <point x="487" y="540"/>
      <point x="503" y="660" type="curve"/>
      <point x="442" y="660" type="line"/>
      <point x="426" y="544"/>
      <point x="404" y="518"/>
      <point x="317" y="518" type="curve" smooth="yes"/>
      <point x="310" y="518" type="line"/>
      <point x="265" y="162" type="line"/>
      <point x="266" y="155" type="line"/>
      <point x="262" y="133"/>
      <point x="260" y="103"/>
      <point x="260" y="85" type="curve" smooth="yes"/>
      <point x="260" y="22"/>
      <point x="286" y="-10"/>
      <point x="331" y="-10" type="curve" smooth="yes"/>
      <point x="361" y="-10"/>
      <point x="388" y="10"/>
      <point x="402" y="28" type="curve"/>
      <point x="407" y="60" type="line"/>
      <point x="396" y="49"/>
      <point x="377" y="31"/>
      <point x="358" y="31" type="curve" smooth="yes"/>
      <point x="342" y="31"/>
      <point x="334" y="41"/>
      <point x="334" y="67" type="curve" smooth="yes"/>
      <point x="334" y="75"/>
      <point x="335" y="85"/>
      <point x="337" y="97" type="curve" smooth="yes"/>
    </contour>
  </outline>
</glyph>
<glyph name="tilde" format="2">
  <advance width="351"/>
  <unicode hex="02DC"/>
  <anchor x="165" y="516" name="_top"/>
  <outline>
    <contour>
      <point x="239" y="609" type="curve" smooth="yes"/>
      <point x="275" y="609"/>
      <point x="299" y="651"/>
      <point x="315" y="730" type="curve"/>
      <point x="295" y="743" type="line"/>
      <point x="284" y="700"/>
      <point x="274" y="672"/>
      <point x="255" y="672" type="curve" smooth="yes"/>
      <point x="226" y="672"/>
      <point x="200" y="740"/>
      <point x="162" y="740" type="curve" smooth="yes"/>
      <point x="122" y="740"/>
      <point x="99" y="699"/>
      <point x="83" y="616" type="curve"/>
      <point x="103" y="605" type="line"/>
      <point x="112" y="652"/>
      <point x="124" y="678"/>
      <point x="143" y="678" type="curve" smooth="yes"/>
      <point x="168" y="678"/>
      <point x="195" y="609"/>
    </contour>
  </outline>
</glyph>
<glyph name="Delta" format="2">
  <advance width="517"/>
  <unicode hex="0394"/>
  <outline>
    <contour>
      <point x="-4" y="0" type="line"/>
      <point x="453" y="0" type="line"/>
      <point x="464" y="80" type="line"/>
      <point x="348" y="710" type="line"/>
      <point x="277" y="710" type="line"/>
      <point x="7" y="80" type="line"/>
    </contour>
    <contour>
      <point x="387" y="49" type="line"/>
      <point x="418" y="86" type="line"/>
      <point x="32" y="86" type="line"/>
      <point x="25" y="49" type="line"/>
      <point x="297" y="694" type="line"/>
      <point x="273" y="694" type="line"/>
    </contour>
  </outline>
</glyph>
<glyph name="Omega" format="2">
  <advance width="571"/>
  <unicode hex="03A9"/>
  <outline>
    <contour>
      <point x="316" y="683" type="curve" smooth="yes"/>
      <point x="218" y="683"/>
      <point x="152" y="573"/>
      <point x="152" y="406" type="curve" smooth="yes"/>
      <point x="152" y="262"/>
      <point x="175" y="176"/>
      <point x="220" y="76" type="curve"/>
      <point x="210" y="0" type="line"/>
      <point x="-9" y="0" type="line"/>
      <point x="15" y="195" type="line"/>
      <point x="38" y="195" type="line"/>
      <point x="41" y="119" type="line" smooth="yes"/>
      <point x="41" y="89"/>
      <point x="54" y="76"/>
      <point x="120" y="76" type="curve" smooth="yes"/>
      <point x="195" y="76" type="line"/>
      <point x="203" y="55" type="line"/>
      <point x="142" y="151"/>
      <point x="70" y="281"/>
      <point x="70" y="415" type="curve" smooth="yes"/>
      <point x="70" y="583"/>
      <point x="168" y="720"/>
      <point x="316" y="720" type="curve" smooth="yes"/>
      <point x="451" y="720"/>
      <point x="533" y="615"/>
      <point x="533" y="462" type="curve" smooth="yes"/>
      <point x="533" y="294"/>
      <point x="420" y="168"/>
      <point x="311" y="53" type="curve"/>
      <point x="318" y="76" type="line"/>
      <point x="397" y="76" type="line" smooth="yes"/>
      <point x="457" y="76"/>
      <point x="480" y="82"/>
      <point x="489" y="119" type="curve" smooth="yes"/>
      <point x="508" y="195" type="line"/>
      <point x="532" y="195" type="line"/>
      <point x="508" y="0" type="line"/>
      <point x="288" y="0" type="line"/>
      <point x="297" y="76" type="line"/>
      <point x="387" y="184"/>
      <point x="451" y="302"/>
      <point x="451" y="457" type="curve" smooth="yes"/>
      <point x="451" y="601"/>
      <point x="401" y="683"/>
    </contour>
  </outline>
</glyph>
<glyph name="pi" format="2">
  <advance width="521"/>
  <unicode hex="03C0"/>
  <outline>
    <contour>
      <point x="173" y="0" type="line"/>
      <point x="232" y="486" type="line"/>
      <point x="185" y="486" type="line"/>
      <point x="145" y="219"/>
      <point x="119" y="183"/>
      <point x="97" y="0" type="curve"/>
    </contour>
    <contour>
      <point x="475" y="434" type="line"/>
      <point x="487" y="518" type="line"/>
      <point x="199" y="518" type="line" smooth="yes"/>
      <point x="104" y="518"/>
      <point x="52" y="454"/>
      <point x="26" y="351" type="curve"/>
      <point x="46" y="335" type="line"/>
      <point x="65" y="404"/>
      <point x="93" y="434"/>
      <point x="150" y="434" type="curve" smooth="yes"/>
    </contour>
    <contour>
      <point x="397" y="486" type="line"/>
      <point x="348" y="486" type="line"/>
      <point x="304" y="204"/>
      <point x="272" y="152"/>
      <point x="272" y="83" type="curve" smooth="yes"/>
      <point x="272" y="24"/>
      <point x="301" y="-10"/>
      <point x="351" y="-10" type="curve" smooth="yes"/>
      <point x="399" y="-10"/>
      <point x="430" y="24"/>
      <point x="452" y="77" type="curve"/>
      <point x="437" y="95" type="line"/>
      <point x="417" y="53"/>
      <point x="397" y="30"/>
      <point x="374" y="30" type="curve" smooth="yes"/>
      <point x="357" y="30"/>
      <point x="348" y="43"/>
      <point x="348" y="68" type="curve" smooth="yes"/>
      <point x="348" y="82"/>
      <point x="349" y="101"/>
      <point x="354" y="133" type="curve" smooth="yes"/>
    </contour>
  </outline>
</glyph>
<glyph name="idieresisacute" format="2">
  <advance width="214"/>
  <unicode hex="1E2F"/>
  <outline>
    <contour>
      <point x="65" y="626" type="curve" smooth="yes"/>
      <point x="37" y="626"/>
      <point x="18" y="650"/>
      <point x="18" y="689" type="curve" smooth="yes"/>
      <point x="18" y="727"/>
      <point x="37" y="750"/>
      <point x="65" y="750" type="curve" smooth="yes"/>
      <point x="93" y="750"/>
      <point x="113" y="727"/>
      <point x="113" y="689" type="curve" smooth="yes"/>
      <point x="113" y="650"/>
      <point x="93" y="626"/>
    </contour>
    <contour>
      <point x="215" y="626" type="curve" smooth="yes"/>
      <point x="188" y="626"/>
      <point x="168" y="650"/>
      <point x="168" y="689" type="curve" smooth="yes"/>
      <point x="168" y="727"/>
      <point x="188" y="750"/>
      <point x="215" y="750" type="curve" smooth="yes"/>
      <point x="243" y="750"/>
      <point x="263" y="727"/>
      <point x="263" y="689" type="curve" smooth="yes"/>
      <point x="263" y="650"/>
      <point x="243" y="626"/>
    </contour>
    <contour>
      <point x="173" y="906" type="curve" smooth="yes"/>
      <point x="130" y="789" type="line"/>
      <point x="128" y="775" type="line"/>
      <point x="146" y="775" type="line"/>
      <point x="217" y="856" type="line" smooth="yes"/>
      <point x="242" y="883"/>
      <point x="255" y="901"/>
      <point x="255" y="930" type="curve" smooth="yes"/>
      <point x="255" y="953"/>
      <point x="243" y="969"/>
      <point x="224" y="969" type="curve" smooth="yes"/>
      <point x="201" y="969"/>
      <point x="189" y="951"/>
    </contour>
    <component base="dotlessi"/>
  </outline>
</glyph>
<glyph name="dagger" format="2">
  <advance width="315"/>
  <unicode hex="2020"/>
  <outline>
    <contour>
      <point x="173" y="514" type="line"/>
      <point x="189" y="514" type="line"/>
      <point x="297" y="447" type="line"/>
      <point x="312" y="447" type="line"/>
      <point x="328" y="569" type="line"/>
      <point x="313" y="569" type="line"/>
      <point x="191" y="528" type="line"/>
      <point x="175" y="528" type="line"/>
      <point x="64" y="569" type="line"/>
      <point x="49" y="569" type="line"/>
      <point x="33" y="447" type="line"/>
      <point x="48" y="447" type="line"/>
    </contour>
    <contour>
      <point x="251" y="710" type="line"/>
      <point x="161" y="710" type="line"/>
      <point x="157" y="685" type="line" smooth="yes"/>
      <point x="153" y="650"/>
      <point x="180" y="592"/>
      <point x="171" y="519" type="curve" smooth="yes"/>
      <point x="162" y="439"/>
      <point x="141" y="401"/>
      <point x="117" y="375" type="curve"/>
      <point x="116" y="364" type="line" smooth="yes"/>
      <point x="111" y="324"/>
      <point x="127" y="218"/>
      <point x="109" y="0" type="curve"/>
      <point x="126" y="0" type="line"/>
      <point x="162" y="218"/>
      <point x="204" y="324"/>
      <point x="208" y="364" type="curve" smooth="yes"/>
      <point x="210" y="375" type="line"/>
      <point x="192" y="401"/>
      <point x="182" y="439"/>
      <point x="192" y="519" type="curve" smooth="yes"/>
      <point x="201" y="592"/>
      <point x="243" y="650"/>
      <point x="247" y="685" type="curve" smooth="yes"/>
    </contour>
  </outline>
</glyph>
<glyph name="daggerdbl" format="2">
  <advance width="329"/>
  <unicode hex="2021"/>
  <outline>
    <contour>
      <point x="4" y="140" type="line"/>
      <point x="19" y="140" type="line"/>
      <point x="140" y="181" type="line"/>
      <point x="157" y="181" type="line"/>
      <point x="268" y="140" type="line"/>
      <point x="283" y="140" type="line"/>
      <point x="299" y="261" type="line"/>
      <point x="283" y="261" type="line"/>
      <point x="160" y="195" type="line"/>
      <point x="142" y="195" type="line"/>
      <point x="35" y="261" type="line"/>
      <point x="20" y="261" type="line"/>
    </contour>
    <contour>
      <point x="119" y="333" type="line"/>
      <point x="136" y="301"/>
      <point x="148" y="258"/>
      <point x="140" y="190" type="curve"/>
      <point x="130" y="114"/>
      <point x="90" y="62"/>
      <point x="85" y="25" type="curve" smooth="yes"/>
      <point x="81" y="0" type="line"/>
      <point x="171" y="0" type="line"/>
      <point x="174" y="25" type="line" smooth="yes"/>
      <point x="179" y="62"/>
      <point x="151" y="114"/>
      <point x="161" y="190" type="curve"/>
      <point x="169" y="258"/>
      <point x="191" y="301"/>
      <point x="216" y="333" type="curve"/>
      <point x="221" y="377" type="line"/>
      <point x="205" y="410"/>
      <point x="193" y="452"/>
      <point x="201" y="520" type="curve"/>
      <point x="210" y="596"/>
      <point x="252" y="648"/>
      <point x="256" y="685" type="curve" smooth="yes"/>
      <point x="260" y="710" type="line"/>
      <point x="170" y="710" type="line"/>
      <point x="167" y="685" type="line" smooth="yes"/>
      <point x="162" y="648"/>
      <point x="190" y="596"/>
      <point x="180" y="520" type="curve"/>
      <point x="172" y="452"/>
      <point x="149" y="410"/>
      <point x="125" y="377" type="curve"/>
    </contour>
    <contour>
      <point x="43" y="449" type="line"/>
      <point x="58" y="449" type="line"/>
      <point x="182" y="515" type="line"/>
      <point x="199" y="515" type="line"/>
      <point x="307" y="449" type="line"/>
      <point x="322" y="449" type="line"/>
      <point x="337" y="570" type="line"/>
      <point x="322" y="570" type="line"/>
      <point x="201" y="529" type="line"/>
      <point x="184" y="529" type="line"/>
      <point x="73" y="570" type="line"/>
      <point x="58" y="570" type="line"/>
    </contour>
  </outline>
</glyph>
<glyph name="bullet" format="2">
  <advance width="291"/>
  <unicode hex="2022"/>
  <outline>
    <contour>
      <point x="49" y="337" type="curve" smooth="yes"/>
      <point x="49" y="260"/>
      <point x="89" y="207"/>
      <point x="145" y="207" type="curve" smooth="yes"/>
      <point x="201" y="207"/>
      <point x="241" y="260"/>
      <point x="241" y="337" type="curve" smooth="yes"/>
      <point x="241" y="414"/>
      <point x="201" y="467"/>
      <point x="145" y="467" type="curve" smooth="yes"/>
      <point x="89" y="467"/>
      <point x="49" y="414"/>
    </contour>
  </outline>
</glyph>
<glyph name="fraction" format="2">
  <advance width="272"/>
  <unicode hex="2044"/>
  <outline>
    <contour>
      <point x="365" y="710" type="line"/>
      <point x="-119" y="0" type="line"/>
      <point x="-84" y="0" type="line"/>
      <point x="399" y="710" type="line"/>
    </contour>
  </outline>
</glyph>
<glyph name="franc" format="2">
  <advance width="393"/>
  <unicode hex="20A3"/>
  <outline>
    <contour>
      <point x="-1" y="0" type="line"/>
      <point x="206" y="0" type="line"/>
      <point x="210" y="31" type="line"/>
      <point x="198" y="31" type="line" smooth="yes"/>
      <point x="172" y="31"/>
      <point x="142" y="34"/>
      <point x="145" y="57" type="curve" smooth="yes"/>
      <point x="220" y="675" type="line"/>
      <point x="300" y="675" type="line" smooth="yes"/>
      <point x="357" y="675"/>
      <point x="377" y="661"/>
      <point x="378" y="620" type="curve" smooth="yes"/>
      <point x="382" y="529" type="line"/>
      <point x="406" y="529" type="line"/>
      <point x="427" y="710" type="line"/>
      <point x="86" y="710" type="line"/>
      <point x="83" y="679" type="line"/>
      <point x="87" y="679" type="line" smooth="yes"/>
      <point x="117" y="679"/>
      <point x="138" y="671"/>
      <point x="135" y="642" type="curve" smooth="yes"/>
      <point x="63" y="64" type="line" smooth="yes"/>
      <point x="59" y="38"/>
      <point x="33" y="31"/>
      <point x="7" y="31" type="curve" smooth="yes"/>
      <point x="2" y="31" type="line"/>
    </contour>
    <contour>
      <point x="179" y="404" type="curve"/>
      <point x="174" y="370" type="line"/>
      <point x="247" y="367"/>
      <point x="285" y="367"/>
      <point x="322" y="348" type="curve"/>
      <point x="331" y="424" type="line"/>
      <point x="290" y="407"/>
      <point x="253" y="406"/>
    </contour>
    <contour>
      <point x="26" y="221" type="line"/>
      <point x="22" y="188" type="line"/>
      <point x="254" y="188" type="line"/>
      <point x="259" y="221" type="line"/>
    </contour>
  </outline>
</glyph>
<glyph name="lira" format="2">
  <advance width="393"/>
  <unicode hex="20A4"/>
  <outline>
    <contour>
      <point x="-15" y="-13" type="line"/>
      <point x="120" y="16"/>
      <point x="174" y="143"/>
      <point x="174" y="291" type="curve" smooth="yes"/>
      <point x="174" y="371"/>
      <point x="163" y="431"/>
      <point x="163" y="506" type="curve" smooth="yes"/>
      <point x="163" y="645"/>
      <point x="202" y="689"/>
      <point x="259" y="689" type="curve" smooth="yes"/>
      <point x="303" y="689"/>
      <point x="328" y="664"/>
      <point x="341" y="634" type="curve"/>
      <point x="345" y="646"/>
      <point x="341" y="679"/>
      <point x="319" y="681" type="curve"/>
      <point x="304" y="570" type="line"/>
      <point x="375" y="570" type="line"/>
      <point x="386" y="663" type="line"/>
      <point x="369" y="687"/>
      <point x="323" y="720"/>
      <point x="258" y="720" type="curve" smooth="yes"/>
      <point x="152" y="720"/>
      <point x="81" y="641"/>
      <point x="81" y="510" type="curve" smooth="yes"/>
      <point x="81" y="414"/>
      <point x="113" y="351"/>
      <point x="113" y="253" type="curve" smooth="yes"/>
      <point x="113" y="148"/>
      <point x="87" y="48"/>
      <point x="-10" y="23" type="curve"/>
    </contour>
    <contour>
      <point x="257" y="-10" type="curve" smooth="yes"/>
      <point x="307" y="-10"/>
      <point x="341" y="59"/>
      <point x="363" y="168" type="curve"/>
      <point x="344" y="180" type="line"/>
      <point x="324" y="107"/>
      <point x="301" y="84"/>
      <point x="264" y="84" type="curve" smooth="yes"/>
      <point x="231" y="84"/>
      <point x="195" y="91"/>
      <point x="137" y="161" type="curve"/>
      <point x="123" y="139" type="line"/>
      <point x="185" y="48"/>
      <point x="207" y="-10"/>
    </contour>
    <contour>
      <point x="17" y="291" type="line"/>
      <point x="13" y="258" type="line"/>
      <point x="283" y="258" type="line"/>
      <point x="287" y="291" type="line"/>
    </contour>
    <contour>
      <point x="33" y="422" type="line"/>
      <point x="29" y="389" type="line"/>
      <point x="299" y="389" type="line"/>
      <point x="303" y="422" type="line"/>
    </contour>
  </outline>
</glyph>
<glyph name="won" format="2">
  <advance width="394"/>
  <unicode hex="20A9"/>
  <outline>
    <contour>
      <point x="45" y="0" type="line"/>
      <point x="99" y="0" type="line"/>
      <point x="242" y="611" type="line"/>
      <point x="232" y="611" type="line"/>
      <point x="222" y="0" type="line"/>
      <point x="276" y="0" type="line"/>
      <point x="398" y="636" type="line" smooth="yes"/>
      <point x="404" y="670"/>
      <point x="417" y="679"/>
      <point x="432" y="679" type="curve" smooth="yes"/>
      <point x="435" y="679" type="line"/>
      <point x="440" y="710" type="line"/>
      <point x="346" y="710" type="line"/>
      <point x="342" y="679" type="line"/>
      <point x="346" y="679" type="line" smooth="yes"/>
      <point x="361" y="679"/>
      <point x="376" y="673"/>
      <point x="375" y="662" type="curve"/>
      <point x="259" y="65" type="line"/>
      <point x="274" y="65" type="line"/>
      <point x="284" y="710" type="line"/>
      <point x="235" y="710" type="line"/>
      <point x="83" y="54" type="line"/>
      <point x="101" y="54" type="line"/>
      <point x="134" y="669" type="line"/>
      <point x="135" y="676"/>
      <point x="151" y="679"/>
      <point x="164" y="679" type="curve" smooth="yes"/>
      <point x="169" y="679" type="line"/>
      <point x="173" y="710" type="line"/>
      <point x="53" y="710" type="line"/>
      <point x="49" y="679" type="line"/>
      <point x="53" y="679" type="line" smooth="yes"/>
      <point x="68" y="679"/>
      <point x="79" y="676"/>
      <point x="77" y="643" type="curve" smooth="yes"/>
    </contour>
    <contour>
      <point x="21" y="448" type="line"/>
      <point x="17" y="415" type="line"/>
      <point x="98" y="415" type="line"/>
      <point x="103" y="416" type="line"/>
      <point x="177" y="416" type="line"/>
      <point x="187" y="448" type="line"/>
    </contour>
    <contour>
      <point x="260" y="416" type="line"/>
      <point x="341" y="416" type="line"/>
      <point x="346" y="415" type="line"/>
      <point x="403" y="415" type="line"/>
      <point x="407" y="448" type="line"/>
      <point x="258" y="448" type="line"/>
    </contour>
    <contour>
      <point x="139" y="248" type="line"/>
      <point x="247" y="248" type="line"/>
      <point x="248" y="280" type="line"/>
      <point x="197" y="280" type="line"/>
      <point x="152" y="280" type="line"/>
    </contour>
    <contour>
      <point x="77" y="281" type="line"/>
      <point x="1" y="281" type="line"/>
      <point x="-4" y="248" type="line"/>
      <point x="79" y="248" type="line"/>
    </contour>
    <contour>
      <point x="311" y="248" type="line"/>
      <point x="383" y="248" type="line"/>
      <point x="387" y="281" type="line"/>
      <point x="325" y="281" type="line"/>
    </contour>
  </outline>
</glyph>
<glyph name="peso" format="2">
  <advance width="394"/>
  <unicode hex="20B1"/>
  <outline>
    <contour>
      <point x="48" y="500" type="line"/>
      <point x="44" y="467" type="line"/>
      <point x="129" y="467" type="line"/>
      <point x="147" y="467" type="line"/>
      <point x="327" y="467" type="line"/>
      <point x="341" y="467" type="line"/>
      <point x="419" y="467" type="line"/>
      <point x="424" y="500" type="line"/>
      <point x="350" y="500" type="line"/>
      <point x="330" y="500" type="line"/>
      <point x="147" y="500" type="line"/>
      <point x="134" y="500" type="line"/>
    </contour>
    <contour>
      <point x="-10" y="0" type="line"/>
      <point x="172" y="0" type="line"/>
      <point x="175" y="31" type="line"/>
      <point x="165" y="31" type="line" smooth="yes"/>
      <point x="145" y="31"/>
      <point x="120" y="35"/>
      <point x="122" y="55" type="curve" smooth="yes"/>
      <point x="146" y="255" type="line"/>
      <point x="175" y="255" type="line" smooth="yes"/>
      <point x="301" y="255"/>
      <point x="375" y="366"/>
      <point x="375" y="506" type="curve" smooth="yes"/>
      <point x="375" y="642"/>
      <point x="316" y="710"/>
      <point x="216" y="710" type="curve" smooth="yes"/>
      <point x="77" y="710" type="line"/>
      <point x="74" y="679" type="line"/>
      <point x="78" y="679" type="line" smooth="yes"/>
      <point x="98" y="679"/>
      <point x="121" y="672"/>
      <point x="118" y="647" type="curve" smooth="yes"/>
      <point x="46" y="64" type="line" smooth="yes"/>
      <point x="43" y="38"/>
      <point x="20" y="31"/>
      <point x="-2" y="31" type="curve" smooth="yes"/>
      <point x="-7" y="31" type="line"/>
    </contour>
    <contour>
      <point x="211" y="675" type="line" smooth="yes"/>
      <point x="267" y="675"/>
      <point x="299" y="627"/>
      <point x="299" y="515" type="curve" smooth="yes"/>
      <point x="299" y="493"/>
      <point x="297" y="472"/>
      <point x="294" y="451" type="curve" smooth="yes"/>
      <point x="281" y="352"/>
      <point x="242" y="289"/>
      <point x="176" y="289" type="curve" smooth="yes"/>
      <point x="151" y="289" type="line"/>
      <point x="198" y="675" type="line"/>
    </contour>
  </outline>
</glyph>
<glyph name="uni20B8" format="2">
  <advance width="393"/>
  <unicode hex="20B8"/>
  <outline>
    <contour>
      <point x="126" y="68" type="line" smooth="yes"/>
      <point x="122" y="37"/>
      <point x="95" y="31"/>
      <point x="68" y="31" type="curve" smooth="yes"/>
      <point x="58" y="31" type="line"/>
      <point x="54" y="0" type="line"/>
      <point x="260" y="0" type="line"/>
      <point x="263" y="31" type="line"/>
      <point x="252" y="31" type="line" smooth="yes"/>
      <point x="224" y="31"/>
      <point x="201" y="37"/>
      <point x="205" y="68" type="curve" smooth="yes"/>
      <point x="263" y="529" type="line"/>
      <point x="296" y="529" type="line" smooth="yes"/>
      <point x="349" y="529"/>
      <point x="364" y="516"/>
      <point x="364" y="474" type="curve" smooth="yes"/>
      <point x="364" y="381" type="line"/>
      <point x="386" y="381" type="line"/>
      <point x="410" y="564" type="line"/>
      <point x="44" y="564" type="line"/>
      <point x="21" y="381" type="line"/>
      <point x="43" y="381" type="line"/>
      <point x="68" y="469" type="line" smooth="yes"/>
      <point x="81" y="515"/>
      <point x="99" y="529"/>
      <point x="147" y="529" type="curve" smooth="yes"/>
      <point x="183" y="529" type="line"/>
    </contour>
    <contour>
      <point x="63" y="710" type="line"/>
      <point x="59" y="677" type="line"/>
      <point x="423" y="677" type="line"/>
      <point x="428" y="710" type="line"/>
    </contour>
  </outline>
</glyph>
<glyph name="minus" format="2">
  <advance width="397"/>
  <unicode hex="2212"/>
  <outline>
    <contour>
      <point x="353" y="357" type="line"/>
      <point x="55" y="357" type="line"/>
      <point x="52" y="325" type="line"/>
      <point x="349" y="325" type="line"/>
    </contour>
  </outline>
</glyph>
<glyph name="radical" format="2">
  <advance width="422"/>
  <unicode hex="221A"/>
  <outline>
    <contour>
      <point x="36" y="334" type="line"/>
      <point x="135" y="334" type="line"/>
      <point x="97" y="342" type="line"/>
      <point x="140" y="0" type="line"/>
      <point x="193" y="0" type="line"/>
      <point x="209" y="45" type="line"/>
      <point x="173" y="373" type="line"/>
      <point x="41" y="373" type="line"/>
    </contour>
    <contour>
      <point x="416" y="710" type="line"/>
      <point x="172" y="0" type="line"/>
      <point x="200" y="0" type="line"/>
      <point x="447" y="710" type="line"/>
    </contour>
  </outline>
</glyph>
<glyph name="zero.den" format="2">
  <advance width="233"/>
  <unicode hex="E402"/>
  <outline>
    <contour>
      <point x="139" y="147" type="curve" smooth="yes"/>
      <point x="130" y="80"/>
      <point x="114" y="20"/>
      <point x="83" y="20" type="curve" smooth="yes"/>
      <point x="62" y="20"/>
      <point x="53" y="53"/>
      <point x="53" y="122" type="curve" smooth="yes"/>
      <point x="53" y="141"/>
      <point x="54" y="165"/>
      <point x="58" y="191" type="curve" smooth="yes"/>
      <point x="67" y="259"/>
      <point x="83" y="323"/>
      <point x="114" y="323" type="curve" smooth="yes"/>
      <point x="136" y="323"/>
      <point x="145" y="289"/>
      <point x="145" y="220" type="curve" smooth="yes"/>
      <point x="145" y="200"/>
      <point x="143" y="174"/>
    </contour>
    <contour>
      <point x="206" y="200" type="curve" smooth="yes"/>
      <point x="206" y="275"/>
      <point x="178" y="349"/>
      <point x="114" y="349" type="curve" smooth="yes"/>
      <point x="29" y="349"/>
      <point x="-7" y="229"/>
      <point x="-7" y="143" type="curve" smooth="yes"/>
      <point x="-7" y="68"/>
      <point x="20" y="-6"/>
      <point x="84" y="-6" type="curve" smooth="yes"/>
      <point x="170" y="-6"/>
      <point x="206" y="114"/>
    </contour>
  </outline>
</glyph>
<glyph name="two.den" format="2">
  <advance width="233"/>
  <unicode hex="E404"/>
  <outline>
    <contour>
      <point x="111" y="57" type="line" smooth="yes"/>
      <point x="144" y="57"/>
      <point x="153" y="62"/>
      <point x="159" y="81" type="curve" smooth="yes"/>
      <point x="169" y="126" type="line"/>
      <point x="189" y="126" type="line"/>
      <point x="173" y="0" type="line"/>
      <point x="-21" y="0" type="line"/>
      <point x="-16" y="42" type="line"/>
      <point x="74" y="114"/>
      <point x="132" y="167"/>
      <point x="132" y="256" type="curve" smooth="yes"/>
      <point x="132" y="301"/>
      <point x="119" y="323"/>
      <point x="96" y="323" type="curve" smooth="yes"/>
      <point x="72" y="323"/>
      <point x="55" y="306"/>
      <point x="41" y="282" type="curve"/>
      <point x="43" y="297"/>
      <point x="53" y="317"/>
      <point x="65" y="318" type="curve"/>
      <point x="57" y="249" type="line"/>
      <point x="9" y="249" type="line"/>
      <point x="15" y="309" type="line"/>
      <point x="34" y="328"/>
      <point x="64" y="349"/>
      <point x="101" y="349" type="curve" smooth="yes"/>
      <point x="159" y="349"/>
      <point x="193" y="315"/>
      <point x="193" y="253" type="curve" smooth="yes"/>
      <point x="193" y="165"/>
      <point x="109" y="106"/>
      <point x="10" y="42" type="curve"/>
      <point x="6" y="44"/>
      <point x="9" y="55"/>
      <point x="10" y="57" type="curve"/>
    </contour>
  </outline>
</glyph>
<glyph name="six.den" format="2">
  <advance width="235"/>
  <unicode hex="E408"/>
  <outline>
    <contour>
      <point x="95" y="-6" type="curve" smooth="yes"/>
      <point x="32" y="-6"/>
      <point x="-6" y="51"/>
      <point x="-6" y="130" type="curve" smooth="yes"/>
      <point x="-6" y="246"/>
      <point x="69" y="356"/>
      <point x="195" y="358" type="curve"/>
      <point x="195" y="335" type="line"/>
      <point x="94" y="331"/>
      <point x="53" y="240"/>
      <point x="53" y="114" type="curve" smooth="yes"/>
      <point x="53" y="57"/>
      <point x="67" y="20"/>
      <point x="92" y="20" type="curve" smooth="yes"/>
      <point x="123" y="20"/>
      <point x="138" y="71"/>
      <point x="138" y="125" type="curve" smooth="yes"/>
      <point x="138" y="172"/>
      <point x="127" y="203"/>
      <point x="105" y="203" type="curve" smooth="yes"/>
      <point x="80" y="203"/>
      <point x="62" y="177"/>
      <point x="47" y="137" type="curve"/>
      <point x="46" y="160" type="line"/>
      <point x="57" y="195"/>
      <point x="86" y="229"/>
      <point x="124" y="229" type="curve" smooth="yes"/>
      <point x="171" y="229"/>
      <point x="200" y="185"/>
      <point x="200" y="123" type="curve" smooth="yes"/>
      <point x="200" y="56"/>
      <point x="162" y="-6"/>
    </contour>
  </outline>
</glyph>
<glyph name="fl" format="2">
  <advance width="424"/>
  <unicode hex="FB02"/>
  <outline>
    <contour>
      <point x="38" y="518" type="line"/>
      <point x="34" y="486" type="line"/>
      <point x="257" y="486" type="line"/>
      <point x="261" y="518" type="line"/>
    </contour>
    <contour>
      <point x="338" y="97" type="curve"/>
      <point x="418" y="750" type="line"/>
      <point x="285" y="750" type="line"/>
      <point x="337" y="722" type="line"/>
      <point x="263" y="124" type="line" smooth="yes"/>
      <point x="261" y="109"/>
      <point x="259" y="96"/>
      <point x="259" y="84" type="curve" smooth="yes"/>
      <point x="259" y="20"/>
      <point x="289" y="-10"/>
      <point x="331" y="-10" type="curve" smooth="yes"/>
      <point x="362" y="-10"/>
      <point x="389" y="10"/>
      <point x="402" y="28" type="curve"/>
      <point x="408" y="60" type="line"/>
      <point x="396" y="49"/>
      <point x="377" y="31"/>
      <point x="358" y="31" type="curve" smooth="yes"/>
      <point x="342" y="31"/>
      <point x="334" y="41"/>
      <point x="334" y="67" type="curve" smooth="yes"/>
      <point x="334" y="75"/>
      <point x="336" y="86"/>
    </contour>
    <contour>
      <point x="278" y="725" type="curve" smooth="yes"/>
      <point x="313" y="725"/>
      <point x="342" y="706"/>
      <point x="361" y="680" type="curve"/>
      <point x="387" y="725" type="line"/>
      <point x="363" y="745"/>
      <point x="322" y="758"/>
      <point x="276" y="758" type="curve" smooth="yes"/>
      <point x="181" y="758"/>
      <point x="116" y="695"/>
      <point x="105" y="584" type="curve" smooth="yes"/>
      <point x="25" y="-223" type="line"/>
      <point x="90" y="-223" type="line"/>
      <point x="185" y="585" type="line" smooth="yes"/>
      <point x="195" y="683"/>
      <point x="219" y="725"/>
    </contour>
  </outline>
</glyph>
<glyph name="f_f_l" format="2">
  <advance width="637"/>
  <unicode hex="FB04"/>
  <outline>
    <contour>
      <point x="38" y="518" type="line"/>
      <point x="34" y="486" type="line"/>
      <point x="259" y="486" type="line"/>
      <point x="264" y="518" type="line"/>
    </contour>
    <contour>
      <point x="251" y="518" type="line"/>
      <point x="247" y="486" type="line"/>
      <point x="469" y="486" type="line"/>
      <point x="474" y="518" type="line"/>
    </contour>
    <contour>
      <point x="265" y="715" type="curve" smooth="yes"/>
      <point x="282" y="715"/>
      <point x="295" y="710"/>
      <point x="303" y="705" type="curve"/>
      <point x="307" y="738" type="line"/>
      <point x="298" y="743"/>
      <point x="281" y="748"/>
      <point x="261" y="748" type="curve" smooth="yes"/>
      <point x="182" y="748"/>
      <point x="115" y="692"/>
      <point x="103" y="569" type="curve" smooth="yes"/>
      <point x="25" y="-223" type="line"/>
      <point x="90" y="-223" type="line"/>
      <point x="185" y="587" type="line" smooth="yes"/>
      <point x="195" y="677"/>
      <point x="215" y="715"/>
    </contour>
    <contour>
      <point x="550" y="97" type="curve"/>
      <point x="631" y="750" type="line"/>
      <point x="497" y="750" type="line"/>
      <point x="549" y="722" type="line"/>
      <point x="475" y="124" type="line" smooth="yes"/>
      <point x="473" y="109"/>
      <point x="471" y="96"/>
      <point x="471" y="84" type="curve" smooth="yes"/>
      <point x="471" y="20"/>
      <point x="501" y="-10"/>
      <point x="543" y="-10" type="curve" smooth="yes"/>
      <point x="574" y="-10"/>
      <point x="601" y="10"/>
      <point x="615" y="28" type="curve"/>
      <point x="620" y="60" type="line"/>
      <point x="609" y="49"/>
      <point x="590" y="31"/>
      <point x="570" y="31" type="curve" smooth="yes"/>
      <point x="555" y="31"/>
      <point x="547" y="41"/>
      <point x="547" y="67" type="curve" smooth="yes"/>
      <point x="547" y="75"/>
      <point x="548" y="86"/>
    </contour>
    <contour>
      <point x="489" y="725" type="curve" smooth="yes"/>
      <point x="526" y="725"/>
      <point x="555" y="706"/>
      <point x="573" y="680" type="curve"/>
      <point x="599" y="725" type="line"/>
      <point x="576" y="745"/>
      <point x="533" y="758"/>
      <point x="489" y="758" type="curve" smooth="yes"/>
      <point x="394" y="758"/>
      <point x="329" y="695"/>
      <point x="317" y="584" type="curve" smooth="yes"/>
      <point x="240" y="-193" type="line"/>
      <point x="305" y="-193" type="line"/>
      <point x="396" y="585" type="line" smooth="yes"/>
      <point x="408" y="683"/>
      <point x="432" y="725"/>
    </contour>
  </outline>
</glyph>
<glyph name="E.alt" format="2">
  <advance width="440"/>
  <outline>
    <contour>
      <point x="392" y="206" type="line"/>
      <point x="367" y="206" type="line"/>
      <point x="338" y="93" type="line" smooth="yes"/>
      <point x="327" y="49"/>
      <point x="303" y="35"/>
      <point x="244" y="35" type="curve" smooth="yes"/>
      <point x="134" y="35" type="line"/>
      <point x="213" y="675" type="line"/>
      <point x="307" y="675" type="line" smooth="yes"/>
      <point x="363" y="675"/>
      <point x="384" y="661"/>
      <point x="385" y="620" type="curve" smooth="yes"/>
      <point x="388" y="529" type="line"/>
      <point x="411" y="529" type="line"/>
      <point x="433" y="710" type="line"/>
      <point x="78" y="710" type="line"/>
      <point x="74" y="679" type="line"/>
      <point x="79" y="679" type="line" smooth="yes"/>
      <point x="108" y="679"/>
      <point x="129" y="671"/>
      <point x="126" y="642" type="curve" smooth="yes"/>
      <point x="55" y="64" type="line" smooth="yes"/>
      <point x="51" y="38"/>
      <point x="25" y="31"/>
      <point x="-2" y="31" type="curve" smooth="yes"/>
      <point x="-7" y="31" type="line"/>
      <point x="-10" y="0" type="line"/>
      <point x="367" y="0" type="line"/>
    </contour>
    <contour>
      <point x="153" y="380" type="line"/>
      <point x="149" y="346" type="line"/>
      <point x="268" y="346" type="line" smooth="yes"/>
      <point x="293" y="346"/>
      <point x="294" y="316"/>
      <point x="290" y="278" type="curve" smooth="yes"/>
      <point x="289" y="272" type="line"/>
      <point x="313" y="272" type="line"/>
      <point x="336" y="454" type="line"/>
      <point x="312" y="454" type="line"/>
      <point x="312" y="448" type="line" smooth="yes"/>
      <point x="308" y="415"/>
      <point x="299" y="380"/>
      <point x="276" y="380" type="curve" smooth="yes"/>
    </contour>
  </outline>
</glyph>
<glyph name="F.alt" format="2">
  <advance width="417"/>
  <outline>
    <contour>
      <point x="213" y="675" type="line"/>
      <point x="304" y="675" type="line" smooth="yes"/>
      <point x="360" y="675"/>
      <point x="381" y="661"/>
      <point x="382" y="620" type="curve" smooth="yes"/>
      <point x="385" y="529" type="line"/>
      <point x="409" y="529" type="line"/>
      <point x="431" y="710" type="line"/>
      <point x="78" y="710" type="line"/>
      <point x="74" y="679" type="line"/>
      <point x="79" y="679" type="line" smooth="yes"/>
      <point x="108" y="679"/>
      <point x="129" y="671"/>
      <point x="126" y="642" type="curve" smooth="yes"/>
      <point x="55" y="64" type="line" smooth="yes"/>
      <point x="51" y="38"/>
      <point x="25" y="31"/>
      <point x="-2" y="31" type="curve" smooth="yes"/>
      <point x="-7" y="31" type="line"/>
      <point x="-10" y="0" type="line"/>
      <point x="199" y="0" type="line"/>
      <point x="202" y="31" type="line"/>
      <point x="190" y="31" type="line" smooth="yes"/>
      <point x="165" y="31"/>
      <point x="134" y="34"/>
      <point x="137" y="57" type="curve" smooth="yes"/>
    </contour>
    <contour>
      <point x="153" y="381" type="line"/>
      <point x="149" y="346" type="line"/>
      <point x="269" y="346" type="line" smooth="yes"/>
      <point x="293" y="346"/>
      <point x="295" y="317"/>
      <point x="290" y="278" type="curve" smooth="yes"/>
      <point x="289" y="271" type="line"/>
      <point x="313" y="271" type="line"/>
      <point x="336" y="454" type="line"/>
      <point x="312" y="454" type="line"/>
      <point x="312" y="448" type="line" smooth="yes"/>
      <point x="308" y="414"/>
      <point x="299" y="381"/>
      <point x="276" y="381" type="curve" smooth="yes"/>
    </contour>
  </outline>
</glyph>
<glyph name="OE.alt" format="2">
  <advance width="702"/>
  <outline>
    <contour>
      <point x="420" y="380" type="line"/>
      <point x="416" y="346" type="line"/>
      <point x="531" y="346" type="line" smooth="yes"/>
      <point x="555" y="346"/>
      <point x="557" y="316"/>
      <point x="552" y="278" type="curve" smooth="yes"/>
      <point x="551" y="272" type="line"/>
      <point x="574" y="272" type="line"/>
      <point x="597" y="454" type="line"/>
      <point x="574" y="454" type="line"/>
      <point x="573" y="448" type="line" smooth="yes"/>
      <point x="569" y="415"/>
      <point x="561" y="380"/>
      <point x="537" y="380" type="curve" smooth="yes"/>
    </contour>
    <contour>
      <point x="654" y="206" type="line"/>
      <point x="629" y="206" type="line"/>
      <point x="600" y="93" type="line" smooth="yes"/>
      <point x="589" y="49"/>
      <point x="565" y="35"/>
      <point x="506" y="35" type="curve" smooth="yes"/>
      <point x="400" y="35" type="line"/>
      <point x="479" y="675" type="line"/>
      <point x="568" y="675" type="line" smooth="yes"/>
      <point x="625" y="675"/>
      <point x="646" y="661"/>
      <point x="647" y="620" type="curve"/>
      <point x="650" y="529" type="line"/>
      <point x="674" y="529" type="line"/>
      <point x="695" y="710" type="line"/>
      <point x="343" y="710" type="line" smooth="yes"/>
      <point x="142" y="710"/>
      <point x="25" y="540"/>
      <point x="25" y="317" type="curve" smooth="yes"/>
      <point x="25" y="118"/>
      <point x="127" y="0"/>
      <point x="281" y="0" type="curve" smooth="yes"/>
      <point x="628" y="0" type="line"/>
    </contour>
    <contour>
      <point x="288" y="35" type="line" smooth="yes"/>
      <point x="169" y="35"/>
      <point x="113" y="130"/>
      <point x="113" y="304" type="curve" smooth="yes"/>
      <point x="113" y="534"/>
      <point x="201" y="675"/>
      <point x="342" y="675" type="curve" smooth="yes"/>
      <point x="396" y="675" type="line"/>
      <point x="318" y="35" type="line"/>
    </contour>
  </outline>
</glyph>
<glyph name="acute.uc" format="2">
  <advance width="351"/>
  <anchor x="122" y="727" name="_top"/>
  <outline>
    <contour>
      <point x="185" y="871" type="curve" smooth="yes"/>
      <point x="131" y="779" type="line"/>
      <point x="129" y="766" type="line"/>
      <point x="144" y="766" type="line"/>
      <point x="216" y="810" type="line" smooth="yes"/>
      <point x="248" y="828"/>
      <point x="267" y="848"/>
      <point x="267" y="877" type="curve" smooth="yes"/>
      <point x="267" y="898"/>
      <point x="256" y="918"/>
      <point x="235" y="918" type="curve" smooth="yes"/>
      <point x="214" y="918"/>
      <point x="203" y="900"/>
    </contour>
  </outline>
</glyph>
<glyph name="at.uc" format="2">
  <advance width="636"/>
  <outline>
    <contour>
      <point x="275" y="121" type="curve" smooth="yes"/>
      <point x="325" y="121"/>
      <point x="364" y="180"/>
      <point x="402" y="300" type="curve"/>
      <point x="384" y="309" type="line"/>
      <point x="355" y="202"/>
      <point x="320" y="153"/>
      <point x="288" y="153" type="curve" smooth="yes"/>
      <point x="259" y="153"/>
      <point x="244" y="190"/>
      <point x="244" y="270" type="curve" smooth="yes"/>
      <point x="244" y="389"/>
      <point x="283" y="515"/>
      <point x="345" y="515" type="curve" smooth="yes"/>
      <point x="378" y="515"/>
      <point x="396" y="488"/>
      <point x="405" y="441" type="curve"/>
      <point x="423" y="455" type="line"/>
      <point x="407" y="516"/>
      <point x="378" y="546"/>
      <point x="335" y="546" type="curve" smooth="yes"/>
      <point x="232" y="546"/>
      <point x="174" y="407"/>
      <point x="174" y="282" type="curve" smooth="yes"/>
      <point x="174" y="173"/>
      <point x="220" y="121"/>
    </contour>
    <contour>
      <point x="318" y="-67" type="curve" smooth="yes"/>
      <point x="383" y="-67"/>
      <point x="436" y="-49"/>
      <point x="475" y="-22" type="curve"/>
      <point x="471" y="11" type="line"/>
      <point x="433" y="-18"/>
      <point x="389" y="-36"/>
      <point x="318" y="-36" type="curve" smooth="yes"/>
      <point x="180" y="-36"/>
      <point x="79" y="94"/>
      <point x="79" y="302" type="curve" smooth="yes"/>
      <point x="79" y="530"/>
      <point x="198" y="702"/>
      <point x="359" y="702" type="curve" smooth="yes"/>
      <point x="492" y="702"/>
      <point x="567" y="579"/>
      <point x="567" y="432" type="curve" smooth="yes"/>
      <point x="567" y="244"/>
      <point x="514" y="152"/>
      <point x="456" y="152" type="curve" smooth="yes"/>
      <point x="440" y="152"/>
      <point x="427" y="170"/>
      <point x="427" y="210" type="curve" smooth="yes"/>
      <point x="427" y="221"/>
      <point x="428" y="234"/>
      <point x="431" y="249" type="curve" smooth="yes"/>
      <point x="485" y="540" type="line"/>
      <point x="447" y="540" type="line"/>
      <point x="411" y="471" type="line"/>
      <point x="402" y="467" type="line"/>
      <point x="358" y="212" type="line"/>
      <point x="365" y="215" type="line"/>
      <point x="371" y="165"/>
      <point x="399" y="121"/>
      <point x="446" y="121" type="curve" smooth="yes"/>
      <point x="530" y="121"/>
      <point x="610" y="230"/>
      <point x="610" y="430" type="curve" smooth="yes"/>
      <point x="610" y="598"/>
      <point x="513" y="733"/>
      <point x="359" y="733" type="curve" smooth="yes"/>
      <point x="174" y="733"/>
      <point x="32" y="543"/>
      <point x="32" y="300" type="curve" smooth="yes"/>
      <point x="32" y="66"/>
      <point x="156" y="-67"/>
    </contour>
  </outline>
</glyph>
<glyph name="backslash.uc" format="2">
  <advance width="278"/>
  <outline>
    <contour>
      <point x="71" y="750" type="line"/>
      <point x="217" y="-39" type="line"/>
      <point x="189" y="-39" type="line"/>
      <point x="43" y="750" type="line"/>
    </contour>
  </outline>
</glyph>
<glyph name="bracketleft.uc" format="2">
  <advance width="221"/>
  <outline>
    <contour>
      <point x="-7" y="-63" type="line"/>
      <point x="147" y="-63" type="line"/>
      <point x="152" y="-33" type="line"/>
      <point x="61" y="-33" type="line"/>
      <point x="155" y="738" type="line"/>
      <point x="246" y="738" type="line"/>
      <point x="250" y="769" type="line"/>
      <point x="96" y="769" type="line"/>
    </contour>
  </outline>
</glyph>
<glyph name="breve_acute.uc" format="2">
  <advance width="358"/>
  <anchor x="168" y="744" name="_top"/>
  <outline>
    <contour>
      <point x="229" y="1022" type="curve" smooth="yes"/>
      <point x="176" y="930" type="line"/>
      <point x="174" y="917" type="line"/>
      <point x="189" y="917" type="line"/>
      <point x="260" y="961" type="line" smooth="yes"/>
      <point x="291" y="979"/>
      <point x="311" y="998"/>
      <point x="311" y="1028" type="curve" smooth="yes"/>
      <point x="311" y="1049"/>
      <point x="299" y="1068"/>
      <point x="279" y="1068" type="curve" smooth="yes"/>
      <point x="258" y="1068"/>
      <point x="247" y="1051"/>
    </contour>
    <component base="breve.uc" xOffset="2"/>
  </outline>
</glyph>
<glyph name="breve_grave.uc" format="2">
  <advance width="358"/>
  <anchor x="179" y="744" name="_top"/>
  <outline>
    <contour>
      <point x="216" y="1022" type="curve" smooth="yes"/>
      <point x="258" y="930" type="line"/>
      <point x="258" y="917" type="line"/>
      <point x="243" y="917" type="line"/>
      <point x="181" y="961" type="line" smooth="yes"/>
      <point x="153" y="979"/>
      <point x="136" y="1001"/>
      <point x="136" y="1028" type="curve" smooth="yes"/>
      <point x="136" y="1049"/>
      <point x="150" y="1068"/>
      <point x="169" y="1068" type="curve" smooth="yes"/>
      <point x="189" y="1068"/>
      <point x="202" y="1053"/>
    </contour>
    <component base="breve.uc" xOffset="1"/>
  </outline>
</glyph>
<glyph name="breve_hook.uc" format="2">
  <advance width="351"/>
  <anchor x="170" y="724" name="_top"/>
  <outline>
    <contour>
      <point x="118" y="985" type="line"/>
      <point x="125" y="1027"/>
      <point x="151" y="1057"/>
      <point x="196" y="1057" type="curve" smooth="yes"/>
      <point x="245" y="1057"/>
      <point x="267" y="1032"/>
      <point x="267" y="993" type="curve" smooth="yes"/>
      <point x="267" y="952"/>
      <point x="235" y="917"/>
      <point x="179" y="911" type="curve"/>
      <point x="193" y="928" type="line"/>
      <point x="188" y="884" type="line"/>
      <point x="161" y="884" type="line"/>
      <point x="166" y="931" type="line"/>
      <point x="201" y="937"/>
      <point x="216" y="961"/>
      <point x="216" y="988" type="curve" smooth="yes"/>
      <point x="216" y="1010"/>
      <point x="207" y="1026"/>
      <point x="191" y="1026" type="curve" smooth="yes"/>
      <point x="171" y="1026"/>
      <point x="161" y="1009"/>
      <point x="156" y="985" type="curve"/>
    </contour>
    <contour>
      <point x="169" y="759" type="curve" smooth="yes"/>
      <point x="114" y="759"/>
      <point x="82" y="799"/>
      <point x="82" y="873" type="curve" smooth="yes"/>
      <point x="82" y="877"/>
      <point x="82" y="880"/>
      <point x="83" y="884" type="curve"/>
      <point x="106" y="884" type="line"/>
      <point x="107" y="842"/>
      <point x="129" y="828"/>
      <point x="176" y="828" type="curve" smooth="yes"/>
      <point x="215" y="828"/>
      <point x="240" y="848"/>
      <point x="248" y="884" type="curve"/>
      <point x="272" y="884" type="line"/>
      <point x="263" y="802"/>
      <point x="224" y="759"/>
    </contour>
  </outline>
</glyph>
<glyph name="circumflex.uc" format="2">
  <advance width="351"/>
  <anchor x="159" y="694" name="_top"/>
  <outline>
    <contour>
      <point x="253" y="905" type="line"/>
      <point x="313" y="768" type="line"/>
      <point x="312" y="758" type="line"/>
      <point x="292" y="758" type="line"/>
      <point x="203" y="854" type="line"/>
      <point x="224" y="854" type="line"/>
      <point x="115" y="758" type="line"/>
      <point x="92" y="758" type="line"/>
      <point x="94" y="768" type="line"/>
      <point x="186" y="905" type="line"/>
    </contour>
  </outline>
</glyph>
<glyph name="circumflex_acute.uc" format="2">
  <advance width="359"/>
  <anchor x="142" y="749" name="_top"/>
  <outline>
    <contour>
      <point x="346" y="955" type="curve" smooth="yes"/>
      <point x="307" y="866" type="line"/>
      <point x="307" y="853" type="line"/>
      <point x="323" y="853" type="line"/>
      <point x="382" y="892" type="line" smooth="yes"/>
      <point x="409" y="909"/>
      <point x="428" y="932"/>
      <point x="428" y="959" type="curve" smooth="yes"/>
      <point x="428" y="981"/>
      <point x="414" y="1001"/>
      <point x="394" y="1001" type="curve" smooth="yes"/>
      <point x="373" y="1001"/>
      <point x="360" y="985"/>
    </contour>
    <component base="circumflex.uc"/>
  </outline>
</glyph>
<glyph name="circumflex_grave" format="2">
  <advance width="359"/>
  <anchor x="157" y="564" name="_top"/>
  <outline>
    <contour>
      <point x="320" y="827" type="curve" smooth="yes"/>
      <point x="361" y="710" type="line"/>
      <point x="361" y="697" type="line"/>
      <point x="344" y="697" type="line"/>
      <point x="277" y="779" type="line" smooth="yes"/>
      <point x="254" y="802"/>
      <point x="241" y="819"/>
      <point x="241" y="844" type="curve" smooth="yes"/>
      <point x="241" y="866"/>
      <point x="255" y="884"/>
      <point x="274" y="884" type="curve" smooth="yes"/>
      <point x="297" y="884"/>
      <point x="307" y="865"/>
    </contour>
    <component base="circumflex" xOffset="-2"/>
  </outline>
</glyph>
<glyph name="circumflex_hook" format="2">
  <advance width="359"/>
  <anchor x="146" y="559" name="_top"/>
  <outline>
    <contour>
      <point x="251" y="807" type="line"/>
      <point x="259" y="853"/>
      <point x="284" y="881"/>
      <point x="335" y="881" type="curve" smooth="yes"/>
      <point x="385" y="881"/>
      <point x="412" y="854"/>
      <point x="412" y="813" type="curve" smooth="yes"/>
      <point x="412" y="775"/>
      <point x="385" y="742"/>
      <point x="321" y="732" type="curve"/>
      <point x="335" y="752" type="line"/>
      <point x="329" y="703" type="line"/>
      <point x="301" y="703" type="line"/>
      <point x="309" y="756" type="line"/>
      <point x="340" y="761"/>
      <point x="357" y="779"/>
      <point x="357" y="808" type="curve" smooth="yes"/>
      <point x="357" y="832"/>
      <point x="349" y="850"/>
      <point x="330" y="850" type="curve" smooth="yes"/>
      <point x="308" y="850"/>
      <point x="298" y="832"/>
      <point x="294" y="807" type="curve"/>
    </contour>
    <component base="circumflex" xOffset="-1"/>
  </outline>
</glyph>
<glyph name="dblgrave.uc" format="2">
  <advance width="351"/>
  <anchor x="228" y="734" name="_top"/>
  <outline>
    <contour>
      <point x="235" y="851" type="line" smooth="yes"/>
      <point x="225" y="897"/>
      <point x="214" y="915"/>
      <point x="192" y="915" type="curve" smooth="yes"/>
      <point x="174" y="915"/>
      <point x="162" y="899"/>
      <point x="162" y="876" type="curve" smooth="yes"/>
      <point x="162" y="849"/>
      <point x="172" y="832"/>
      <point x="198" y="801" type="curve" smooth="yes"/>
      <point x="235" y="757" type="line"/>
      <point x="253" y="757" type="line"/>
      <point x="253" y="770" type="line"/>
    </contour>
    <contour>
      <point x="122" y="851" type="line" smooth="yes"/>
      <point x="112" y="897"/>
      <point x="101" y="915"/>
      <point x="80" y="915" type="curve" smooth="yes"/>
      <point x="61" y="915"/>
      <point x="49" y="899"/>
      <point x="49" y="876" type="curve" smooth="yes"/>
      <point x="49" y="849"/>
      <point x="59" y="832"/>
      <point x="85" y="801" type="curve" smooth="yes"/>
      <point x="122" y="757" type="line"/>
      <point x="140" y="757" type="line"/>
      <point x="140" y="770" type="line"/>
    </contour>
  </outline>
</glyph>
<glyph name="dollar.alt" format="2">
  <advance width="393"/>
  <outline>
    <contour>
      <point x="181" y="12" type="curve" smooth="yes"/>
      <point x="285" y="12"/>
      <point x="356" y="86"/>
      <point x="356" y="211" type="curve" smooth="yes"/>
      <point x="356" y="317"/>
      <point x="294" y="362"/>
      <point x="228" y="406" type="curve" smooth="yes"/>
      <point x="158" y="456"/>
      <point x="132" y="473"/>
      <point x="132" y="543" type="curve" smooth="yes"/>
      <point x="132" y="613"/>
      <point x="168" y="661"/>
      <point x="240" y="661" type="curve" smooth="yes"/>
      <point x="288" y="661"/>
      <point x="322" y="644"/>
      <point x="350" y="591" type="curve"/>
      <point x="343" y="612"/>
      <point x="336" y="638"/>
      <point x="325" y="654" type="curve"/>
      <point x="309" y="527" type="line"/>
      <point x="374" y="527" type="line"/>
      <point x="387" y="629" type="line"/>
      <point x="360" y="667"/>
      <point x="304" y="698"/>
      <point x="242" y="698" type="curve" smooth="yes"/>
      <point x="140" y="698"/>
      <point x="72" y="627"/>
      <point x="72" y="521" type="curve" smooth="yes"/>
      <point x="72" y="414"/>
      <point x="128" y="375"/>
      <point x="193" y="332" type="curve" smooth="yes"/>
      <point x="256" y="288"/>
      <point x="290" y="257"/>
      <point x="290" y="186" type="curve" smooth="yes"/>
      <point x="290" y="109"/>
      <point x="252" y="49"/>
      <point x="184" y="49" type="curve" smooth="yes"/>
      <point x="126" y="49"/>
      <point x="80" y="72"/>
      <point x="56" y="116" type="curve"/>
      <point x="55" y="103"/>
      <point x="59" y="92"/>
      <point x="66" y="83" type="curve"/>
      <point x="84" y="213" type="line"/>
      <point x="14" y="213" type="line"/>
      <point x="-1" y="107" type="line"/>
      <point x="21" y="71"/>
      <point x="95" y="12"/>
    </contour>
    <contour>
      <point x="138" y="-120" type="line"/>
      <point x="162" y="-113" type="line"/>
      <point x="170" y="22" type="line"/>
      <point x="147" y="19" type="line"/>
    </contour>
    <contour>
      <point x="252" y="683" type="line"/>
      <point x="270" y="785" type="line"/>
      <point x="250" y="790" type="line"/>
      <point x="233" y="691" type="line"/>
    </contour>
  </outline>
</glyph>
<glyph name="eight.linprop" format="2">
  <advance width="411"/>
  <outline>
    <contour>
      <point x="231" y="391" type="curve" smooth="yes"/>
      <point x="182" y="391"/>
      <point x="153" y="440"/>
      <point x="153" y="526" type="curve" smooth="yes"/>
      <point x="153" y="543"/>
      <point x="154" y="560"/>
      <point x="157" y="576" type="curve" smooth="yes"/>
      <point x="166" y="647"/>
      <point x="196" y="687"/>
      <point x="239" y="687" type="curve" smooth="yes"/>
      <point x="287" y="687"/>
      <point x="315" y="640"/>
      <point x="315" y="554" type="curve" smooth="yes"/>
      <point x="315" y="537"/>
      <point x="314" y="521"/>
      <point x="311" y="506" type="curve" smooth="yes"/>
      <point x="302" y="435"/>
      <point x="270" y="391"/>
    </contour>
    <contour>
      <point x="193" y="23" type="curve" smooth="yes"/>
      <point x="133" y="23"/>
      <point x="95" y="81"/>
      <point x="95" y="187" type="curve" smooth="yes"/>
      <point x="95" y="202"/>
      <point x="96" y="217"/>
      <point x="99" y="232" type="curve" smooth="yes"/>
      <point x="110" y="309"/>
      <point x="148" y="361"/>
      <point x="202" y="361" type="curve" smooth="yes"/>
      <point x="264" y="361"/>
      <point x="297" y="301"/>
      <point x="297" y="218" type="curve" smooth="yes"/>
      <point x="297" y="199"/>
      <point x="295" y="181"/>
      <point x="293" y="163" type="curve" smooth="yes"/>
      <point x="282" y="79"/>
      <point x="247" y="23"/>
    </contour>
    <contour>
      <point x="192" y="-10" type="curve" smooth="yes"/>
      <point x="308" y="-10"/>
      <point x="379" y="84"/>
      <point x="379" y="197" type="curve" smooth="yes"/>
      <point x="379" y="295"/>
      <point x="330" y="357"/>
      <point x="256" y="378" type="curve"/>
      <point x="265" y="364" type="line"/>
      <point x="268" y="381" type="line"/>
      <point x="254" y="369" type="line"/>
      <point x="341" y="381"/>
      <point x="390" y="450"/>
      <point x="390" y="545" type="curve" smooth="yes"/>
      <point x="390" y="648"/>
      <point x="328" y="720"/>
      <point x="239" y="720" type="curve" smooth="yes"/>
      <point x="144" y="720"/>
      <point x="78" y="643"/>
      <point x="78" y="542" type="curve" smooth="yes"/>
      <point x="78" y="460"/>
      <point x="118" y="398"/>
      <point x="180" y="376" type="curve"/>
      <point x="171" y="391" type="line"/>
      <point x="167" y="374" type="line"/>
      <point x="181" y="386" type="line"/>
      <point x="80" y="379"/>
      <point x="13" y="309"/>
      <point x="13" y="194" type="curve" smooth="yes"/>
      <point x="13" y="72"/>
      <point x="91" y="-10"/>
    </contour>
  </outline>
</glyph>
<glyph name="f_f.short" format="2">
  <advance width="460"/>
  <outline>
    <contour>
      <point x="251" y="518" type="line"/>
      <point x="247" y="486" type="line"/>
      <point x="466" y="486" type="line"/>
      <point x="471" y="518" type="line"/>
    </contour>
    <contour>
      <point x="303" y="-223" type="line"/>
      <point x="396" y="585" type="line" smooth="yes"/>
      <point x="408" y="682"/>
      <point x="423" y="725"/>
      <point x="468" y="725" type="curve" smooth="yes"/>
      <point x="491" y="725"/>
      <point x="506" y="717"/>
      <point x="521" y="708" type="curve"/>
      <point x="527" y="743" type="line"/>
      <point x="513" y="751"/>
      <point x="490" y="758"/>
      <point x="466" y="758" type="curve" smooth="yes"/>
      <point x="388" y="758"/>
      <point x="328" y="695"/>
      <point x="317" y="584" type="curve" smooth="yes"/>
      <point x="237" y="-223" type="line"/>
    </contour>
    <contour>
      <point x="38" y="518" type="line"/>
      <point x="34" y="486" type="line"/>
      <point x="259" y="486" type="line"/>
      <point x="264" y="518" type="line"/>
    </contour>
    <contour>
      <point x="90" y="-223" type="line"/>
      <point x="185" y="587" type="line" smooth="yes"/>
      <point x="195" y="677"/>
      <point x="215" y="715"/>
      <point x="265" y="715" type="curve" smooth="yes"/>
      <point x="282" y="715"/>
      <point x="295" y="710"/>
      <point x="303" y="705" type="curve"/>
      <point x="307" y="738" type="line"/>
      <point x="298" y="743"/>
      <point x="281" y="748"/>
      <point x="261" y="748" type="curve" smooth="yes"/>
      <point x="182" y="748"/>
      <point x="115" y="692"/>
      <point x="103" y="569" type="curve" smooth="yes"/>
      <point x="25" y="-223" type="line"/>
    </contour>
  </outline>
</glyph>
<glyph name="f_f_b" format="2">
  <advance width="853"/>
  <outline>
    <contour>
      <point x="38" y="518" type="line"/>
      <point x="34" y="486" type="line"/>
      <point x="259" y="486" type="line"/>
      <point x="264" y="518" type="line"/>
    </contour>
    <contour>
      <point x="251" y="518" type="line"/>
      <point x="247" y="486" type="line"/>
      <point x="469" y="486" type="line"/>
      <point x="474" y="518" type="line"/>
    </contour>
    <contour>
      <point x="621" y="-10" type="curve" smooth="yes"/>
      <point x="763" y="-10"/>
      <point x="833" y="174"/>
      <point x="833" y="329" type="curve" smooth="yes"/>
      <point x="833" y="448"/>
      <point x="784" y="528"/>
      <point x="717" y="528" type="curve" smooth="yes"/>
      <point x="638" y="528"/>
      <point x="596" y="458"/>
      <point x="553" y="306" type="curve"/>
      <point x="564" y="284" type="line"/>
      <point x="603" y="411"/>
      <point x="633" y="485"/>
      <point x="689" y="485" type="curve" smooth="yes"/>
      <point x="729" y="485"/>
      <point x="751" y="427"/>
      <point x="751" y="342" type="curve" smooth="yes"/>
      <point x="751" y="197"/>
      <point x="705" y="23"/>
      <point x="620" y="23" type="curve" smooth="yes"/>
      <point x="570" y="23"/>
      <point x="535" y="59"/>
      <point x="507" y="125" type="curve"/>
      <point x="507" y="90"/>
      <point x="519" y="57"/>
      <point x="541" y="28" type="curve"/>
      <point x="631" y="750" type="line"/>
      <point x="495" y="750" type="line"/>
      <point x="549" y="725" type="line"/>
      <point x="467" y="61" type="line"/>
      <point x="499" y="20"/>
      <point x="559" y="-10"/>
    </contour>
    <contour>
      <point x="489" y="725" type="curve" smooth="yes"/>
      <point x="526" y="725"/>
      <point x="555" y="706"/>
      <point x="573" y="680" type="curve"/>
      <point x="599" y="725" type="line"/>
      <point x="576" y="745"/>
      <point x="533" y="758"/>
      <point x="489" y="758" type="curve" smooth="yes"/>
      <point x="394" y="758"/>
      <point x="329" y="695"/>
      <point x="317" y="584" type="curve" smooth="yes"/>
      <point x="240" y="-193" type="line"/>
      <point x="305" y="-193" type="line"/>
      <point x="396" y="585" type="line" smooth="yes"/>
      <point x="408" y="683"/>
      <point x="432" y="725"/>
    </contour>
    <contour>
      <point x="265" y="715" type="curve" smooth="yes"/>
      <point x="282" y="715"/>
      <point x="295" y="710"/>
      <point x="303" y="705" type="curve"/>
      <point x="307" y="738" type="line"/>
      <point x="298" y="743"/>
      <point x="281" y="748"/>
      <point x="261" y="748" type="curve" smooth="yes"/>
      <point x="182" y="748"/>
      <point x="115" y="692"/>
      <point x="103" y="569" type="curve" smooth="yes"/>
      <point x="25" y="-223" type="line"/>
      <point x="90" y="-223" type="line"/>
      <point x="185" y="587" type="line" smooth="yes"/>
      <point x="195" y="677"/>
      <point x="215" y="715"/>
    </contour>
  </outline>
</glyph>
<glyph name="f_f_i.alt" format="2">
  <advance width="635"/>
  <outline>
    <contour>
      <point x="38" y="518" type="line"/>
      <point x="34" y="486" type="line"/>
      <point x="259" y="486" type="line"/>
      <point x="264" y="518" type="line"/>
    </contour>
    <contour>
      <point x="494" y="725" type="curve" smooth="yes"/>
      <point x="526" y="725"/>
      <point x="552" y="711"/>
      <point x="562" y="682" type="curve"/>
      <point x="575" y="692"/>
      <point x="562" y="722"/>
      <point x="546" y="724" type="curve"/>
      <point x="534" y="636" type="line"/>
      <point x="600" y="636" type="line"/>
      <point x="610" y="712" type="line"/>
      <point x="591" y="737"/>
      <point x="543" y="758"/>
      <point x="496" y="758" type="curve" smooth="yes"/>
      <point x="402" y="758"/>
      <point x="330" y="700"/>
      <point x="316" y="569" type="curve" smooth="yes"/>
      <point x="238" y="-193" type="line"/>
      <point x="304" y="-193" type="line"/>
      <point x="397" y="591" type="line" smooth="yes"/>
      <point x="408" y="680"/>
      <point x="437" y="725"/>
    </contour>
    <contour>
      <point x="251" y="518" type="line"/>
      <point x="247" y="486" type="line"/>
      <point x="453" y="486" type="line" smooth="yes"/>
      <point x="499" y="486"/>
      <point x="515" y="470"/>
      <point x="512" y="441" type="curve"/>
      <point x="474" y="124" type="line" smooth="yes"/>
      <point x="472" y="109"/>
      <point x="470" y="96"/>
      <point x="470" y="84" type="curve" smooth="yes"/>
      <point x="470" y="20"/>
      <point x="499" y="-10"/>
      <point x="542" y="-10" type="curve" smooth="yes"/>
      <point x="573" y="-10"/>
      <point x="600" y="10"/>
      <point x="613" y="28" type="curve"/>
      <point x="619" y="60" type="line"/>
      <point x="607" y="49"/>
      <point x="589" y="31"/>
      <point x="569" y="31" type="curve" smooth="yes"/>
      <point x="553" y="31"/>
      <point x="546" y="41"/>
      <point x="546" y="67" type="curve" smooth="yes"/>
      <point x="546" y="75"/>
      <point x="546" y="86"/>
      <point x="549" y="97" type="curve" smooth="yes"/>
      <point x="600" y="518" type="line"/>
    </contour>
    <contour>
      <point x="270" y="709" type="curve" smooth="yes"/>
      <point x="302" y="709"/>
      <point x="331" y="689"/>
      <point x="348" y="640" type="curve"/>
      <point x="350" y="661"/>
      <point x="342" y="694"/>
      <point x="330" y="703" type="curve"/>
      <point x="316" y="570" type="line"/>
      <point x="371" y="541" type="line"/>
      <point x="386" y="676" type="line"/>
      <point x="362" y="712"/>
      <point x="324" y="743"/>
      <point x="265" y="743" type="curve" smooth="yes"/>
      <point x="184" y="743"/>
      <point x="116" y="689"/>
      <point x="105" y="582" type="curve" smooth="yes"/>
      <point x="25" y="-223" type="line"/>
      <point x="90" y="-223" type="line"/>
      <point x="184" y="585" type="line" smooth="yes"/>
      <point x="195" y="674"/>
      <point x="224" y="709"/>
    </contour>
  </outline>
</glyph>
<glyph name="f_k" format="2">
  <advance width="609"/>
  <outline>
    <contour>
      <point x="38" y="518" type="line"/>
      <point x="34" y="486" type="line"/>
      <point x="257" y="486" type="line"/>
      <point x="261" y="518" type="line"/>
    </contour>
    <contour>
      <point x="445" y="328" type="line"/>
      <point x="493" y="154" type="line" smooth="yes"/>
      <point x="519" y="50"/>
      <point x="527" y="31"/>
      <point x="553" y="31" type="curve" smooth="yes"/>
      <point x="565" y="31"/>
      <point x="577" y="39"/>
      <point x="589" y="52" type="curve"/>
      <point x="584" y="20" type="line"/>
      <point x="570" y="3"/>
      <point x="545" y="-10"/>
      <point x="518" y="-10" type="curve" smooth="yes"/>
      <point x="470" y="-10"/>
      <point x="448" y="17"/>
      <point x="419" y="133" type="curve" smooth="yes"/>
      <point x="382" y="283" type="line"/>
      <point x="383" y="288" type="line"/>
      <point x="461" y="364"/>
      <point x="509" y="434"/>
      <point x="546" y="518" type="curve"/>
      <point x="613" y="518" type="line"/>
      <point x="613" y="513" type="line"/>
      <point x="571" y="437"/>
      <point x="499" y="370"/>
      <point x="409" y="279" type="curve"/>
    </contour>
    <contour>
      <point x="325" y="0" type="line"/>
      <point x="418" y="750" type="line"/>
      <point x="285" y="750" type="line"/>
      <point x="337" y="724" type="line"/>
      <point x="247" y="0" type="line"/>
    </contour>
    <contour>
      <point x="278" y="725" type="curve" smooth="yes"/>
      <point x="313" y="725"/>
      <point x="342" y="706"/>
      <point x="361" y="680" type="curve"/>
      <point x="387" y="725" type="line"/>
      <point x="363" y="745"/>
      <point x="322" y="758"/>
      <point x="276" y="758" type="curve" smooth="yes"/>
      <point x="181" y="758"/>
      <point x="116" y="695"/>
      <point x="105" y="584" type="curve" smooth="yes"/>
      <point x="25" y="-223" type="line"/>
      <point x="90" y="-223" type="line"/>
      <point x="185" y="585" type="line" smooth="yes"/>
      <point x="195" y="683"/>
      <point x="219" y="725"/>
    </contour>
  </outline>
</glyph>
<glyph name="five.linprop" format="2">
  <advance width="393"/>
  <outline>
    <contour>
      <point x="163" y="-10" type="curve" smooth="yes"/>
      <point x="280" y="-10"/>
      <point x="352" y="113"/>
      <point x="352" y="258" type="curve" smooth="yes"/>
      <point x="352" y="384"/>
      <point x="296" y="472"/>
      <point x="207" y="472" type="curve" smooth="yes"/>
      <point x="162" y="472"/>
      <point x="115" y="450"/>
      <point x="81" y="388" type="curve"/>
      <point x="90" y="389" type="line"/>
      <point x="122" y="659" type="line"/>
      <point x="107" y="624" type="line"/>
      <point x="342" y="624" type="line"/>
      <point x="364" y="710" type="line"/>
      <point x="102" y="710" type="line"/>
      <point x="56" y="344" type="line"/>
      <point x="79" y="344" type="line"/>
      <point x="106" y="402"/>
      <point x="138" y="438"/>
      <point x="188" y="438" type="curve" smooth="yes"/>
      <point x="242" y="438"/>
      <point x="272" y="376"/>
      <point x="272" y="259" type="curve" smooth="yes"/>
      <point x="272" y="125"/>
      <point x="230" y="23"/>
      <point x="157" y="23" type="curve" smooth="yes"/>
      <point x="81" y="23"/>
      <point x="42" y="85"/>
      <point x="25" y="165" type="curve"/>
      <point x="3" y="146" type="line"/>
      <point x="21" y="58"/>
      <point x="71" y="-10"/>
    </contour>
  </outline>
</glyph>
<glyph name="five.lintab" format="2">
  <advance width="393"/>
  <outline>
    <contour>
      <point x="163" y="-10" type="curve" smooth="yes"/>
      <point x="282" y="-10"/>
      <point x="354" y="114"/>
      <point x="354" y="259" type="curve" smooth="yes"/>
      <point x="354" y="385"/>
      <point x="299" y="472"/>
      <point x="209" y="472" type="curve" smooth="yes"/>
      <point x="165" y="472"/>
      <point x="116" y="450"/>
      <point x="82" y="388" type="curve"/>
      <point x="91" y="389" type="line"/>
      <point x="123" y="659" type="line"/>
      <point x="109" y="624" type="line"/>
      <point x="343" y="624" type="line"/>
      <point x="365" y="710" type="line"/>
      <point x="104" y="710" type="line"/>
      <point x="57" y="344" type="line"/>
      <point x="80" y="344" type="line"/>
      <point x="107" y="402"/>
      <point x="140" y="438"/>
      <point x="190" y="438" type="curve" smooth="yes"/>
      <point x="244" y="438"/>
      <point x="275" y="377"/>
      <point x="275" y="260" type="curve" smooth="yes"/>
      <point x="275" y="126"/>
      <point x="232" y="23"/>
      <point x="158" y="23" type="curve" smooth="yes"/>
      <point x="81" y="23"/>
      <point x="43" y="88"/>
      <point x="27" y="171" type="curve"/>
      <point x="4" y="152" type="line"/>
      <point x="23" y="60"/>
      <point x="73" y="-10"/>
    </contour>
  </outline>
</glyph>
<glyph name="five.oldprop" format="2">
  <advance width="394"/>
  <outline>
    <contour>
      <point x="6" y="-2" type="curve"/>
      <point x="28" y="18" type="line"/>
      <point x="45" y="-55"/>
      <point x="84" y="-116"/>
      <point x="159" y="-116" type="curve" smooth="yes"/>
      <point x="235" y="-116"/>
      <point x="276" y="-30"/>
      <point x="276" y="103" type="curve" smooth="yes"/>
      <point x="276" y="209"/>
      <point x="249" y="268"/>
      <point x="195" y="268" type="curve" smooth="yes"/>
      <point x="143" y="268"/>
      <point x="109" y="233"/>
      <point x="81" y="174" type="curve"/>
      <point x="58" y="174" type="line"/>
      <point x="105" y="548" type="line"/>
      <point x="367" y="548" type="line"/>
      <point x="345" y="462" type="line"/>
      <point x="111" y="462" type="line"/>
      <point x="125" y="497" type="line"/>
      <point x="92" y="220" type="line"/>
      <point x="84" y="221" type="line"/>
      <point x="119" y="282"/>
      <point x="166" y="302"/>
      <point x="211" y="302" type="curve" smooth="yes"/>
      <point x="300" y="302"/>
      <point x="356" y="216"/>
      <point x="356" y="102" type="curve" smooth="yes"/>
      <point x="356" y="-37"/>
      <point x="284" y="-149"/>
      <point x="164" y="-149" type="curve" smooth="yes"/>
      <point x="75" y="-149"/>
      <point x="25" y="-82"/>
    </contour>
  </outline>
</glyph>
<glyph name="five.oldtab" format="2">
  <advance width="393"/>
  <outline>
    <contour>
      <point x="173" y="-149" type="curve" smooth="yes"/>
      <point x="292" y="-149"/>
      <point x="363" y="-37"/>
      <point x="363" y="100" type="curve" smooth="yes"/>
      <point x="363" y="216"/>
      <point x="307" y="302"/>
      <point x="218" y="302" type="curve" smooth="yes"/>
      <point x="174" y="302"/>
      <point x="126" y="282"/>
      <point x="91" y="221" type="curve"/>
      <point x="99" y="220" type="line"/>
      <point x="132" y="497" type="line"/>
      <point x="117" y="462" type="line"/>
      <point x="352" y="462" type="line"/>
      <point x="374" y="548" type="line"/>
      <point x="112" y="548" type="line"/>
      <point x="65" y="174" type="line"/>
      <point x="89" y="174" type="line"/>
      <point x="115" y="233"/>
      <point x="150" y="268"/>
      <point x="202" y="268" type="curve" smooth="yes"/>
      <point x="256" y="268"/>
      <point x="284" y="208"/>
      <point x="284" y="101" type="curve" smooth="yes"/>
      <point x="284" y="-32"/>
      <point x="243" y="-116"/>
      <point x="167" y="-116" type="curve" smooth="yes"/>
      <point x="89" y="-116"/>
      <point x="48" y="-50"/>
      <point x="31" y="35" type="curve"/>
      <point x="8" y="15" type="line"/>
      <point x="27" y="-77"/>
      <point x="80" y="-149"/>
    </contour>
  </outline>
</glyph>
<glyph name="florin.proportional" format="2">
  <advance width="359"/>
  <outline>
    <contour>
      <point x="143" y="36" type="curve" smooth="yes"/>
      <point x="236" y="576" type="line" smooth="yes"/>
      <point x="254" y="690"/>
      <point x="278" y="725"/>
      <point x="324" y="725" type="curve" smooth="yes"/>
      <point x="349" y="725"/>
      <point x="370" y="715"/>
      <point x="387" y="703" type="curve"/>
      <point x="393" y="737" type="line"/>
      <point x="376" y="748"/>
      <point x="349" y="758"/>
      <point x="319" y="758" type="curve" smooth="yes"/>
      <point x="236" y="758"/>
      <point x="180" y="700"/>
      <point x="160" y="578" type="curve" smooth="yes"/>
      <point x="67" y="49" type="line" smooth="yes"/>
      <point x="37" y="-147"/>
      <point x="11" y="-203"/>
      <point x="-36" y="-203" type="curve" smooth="yes"/>
      <point x="-62" y="-203"/>
      <point x="-79" y="-188"/>
      <point x="-85" y="-185" type="curve"/>
      <point x="-90" y="-221" type="line"/>
      <point x="-78" y="-229"/>
      <point x="-59" y="-236"/>
      <point x="-34" y="-236" type="curve" smooth="yes"/>
      <point x="53" y="-236"/>
      <point x="112" y="-136"/>
    </contour>
    <contour>
      <point x="78" y="499" type="line"/>
      <point x="71" y="466" type="line"/>
      <point x="322" y="466" type="line"/>
      <point x="329" y="499" type="line"/>
    </contour>
  </outline>
</glyph>
<glyph name="four.lintab" format="2">
  <advance width="393"/>
  <outline>
    <contour>
      <point x="3" y="204" type="line"/>
      <point x="363" y="204" type="line"/>
      <point x="372" y="267" type="line"/>
      <point x="35" y="267" type="line"/>
      <point x="31" y="238" type="line"/>
      <point x="306" y="702" type="line"/>
      <point x="309" y="710" type="line"/>
      <point x="280" y="710" type="line"/>
      <point x="10" y="258" type="line"/>
    </contour>
    <contour>
      <point x="274" y="71" type="curve" smooth="yes"/>
      <point x="352" y="710" type="line"/>
      <point x="293" y="710" type="line"/>
      <point x="268" y="674" type="line"/>
      <point x="195" y="71" type="line" smooth="yes"/>
      <point x="191" y="40"/>
      <point x="168" y="33"/>
      <point x="128" y="33" type="curve" smooth="yes"/>
      <point x="117" y="33" type="line"/>
      <point x="112" y="0" type="line"/>
      <point x="332" y="0" type="line"/>
      <point x="337" y="33" type="line"/>
      <point x="327" y="33" type="line" smooth="yes"/>
      <point x="291" y="33"/>
      <point x="270" y="40"/>
    </contour>
  </outline>
</glyph>
<glyph name="horn" format="2">
  <advance width="352"/>
  <anchor x="183" y="444" name="_top"/>
  <outline>
    <contour>
      <point x="88" y="498" type="line"/>
      <point x="209" y="484"/>
      <point x="274" y="539"/>
      <point x="285" y="690" type="curve"/>
      <point x="224" y="690" type="line"/>
      <point x="212" y="551"/>
      <point x="186" y="519"/>
      <point x="69" y="519" type="curve"/>
    </contour>
  </outline>
</glyph>
<glyph name="naira.proportional" format="2">
  <advance width="519"/>
  <outline>
    <contour>
      <point x="51" y="417" type="line"/>
      <point x="123" y="417" type="line"/>
      <point x="128" y="450" type="line"/>
      <point x="55" y="450" type="line"/>
    </contour>
    <contour>
      <point x="280" y="418" type="line"/>
      <point x="415" y="418" type="line"/>
      <point x="427" y="417" type="line"/>
      <point x="497" y="417" type="line"/>
      <point x="501" y="450" type="line"/>
      <point x="278" y="450" type="line"/>
    </contour>
    <contour>
      <point x="400" y="258" type="line"/>
      <point x="476" y="258" type="line"/>
      <point x="481" y="291" type="line"/>
      <point x="406" y="291" type="line"/>
    </contour>
    <contour>
      <point x="30" y="258" type="line"/>
      <point x="289" y="258" type="line"/>
      <point x="282" y="291" type="line"/>
      <point x="118" y="291" type="line"/>
      <point x="107" y="291" type="line"/>
      <point x="35" y="291" type="line"/>
    </contour>
    <contour>
      <point x="2" y="0" type="line"/>
      <point x="156" y="0" type="line"/>
      <point x="160" y="31" type="line"/>
      <point x="142" y="31" type="line" smooth="yes"/>
      <point x="114" y="31"/>
      <point x="95" y="38"/>
      <point x="98" y="62" type="curve" smooth="yes"/>
      <point x="175" y="695" type="line"/>
      <point x="162" y="693" type="line"/>
      <point x="326" y="0" type="line"/>
      <point x="384" y="0" type="line"/>
      <point x="461" y="618" type="line" smooth="yes"/>
      <point x="466" y="660"/>
      <point x="490" y="679"/>
      <point x="517" y="679" type="curve" smooth="yes"/>
      <point x="525" y="679" type="line"/>
      <point x="529" y="710" type="line"/>
      <point x="375" y="710" type="line"/>
      <point x="371" y="679" type="line"/>
      <point x="390" y="679" type="line" smooth="yes"/>
      <point x="418" y="679"/>
      <point x="436" y="672"/>
      <point x="433" y="648" type="curve"/>
      <point x="366" y="92" type="line"/>
      <point x="379" y="98" type="line"/>
      <point x="242" y="710" type="line"/>
      <point x="90" y="710" type="line"/>
      <point x="86" y="679" type="line"/>
      <point x="94" y="679" type="line" smooth="yes"/>
      <point x="117" y="679"/>
      <point x="142" y="672"/>
      <point x="139" y="644" type="curve" smooth="yes"/>
      <point x="71" y="95" type="line" smooth="yes"/>
      <point x="66" y="50"/>
      <point x="41" y="31"/>
      <point x="13" y="31" type="curve" smooth="yes"/>
      <point x="6" y="31" type="line"/>
    </contour>
  </outline>
</glyph>
<glyph name="nine.lintab" format="2">
  <advance width="393"/>
  <outline>
    <contour>
      <point x="213" y="720" type="curve" smooth="yes"/>
      <point x="309" y="720"/>
      <point x="370" y="631"/>
      <point x="370" y="461" type="curve" smooth="yes"/>
      <point x="370" y="209"/>
      <point x="248" y="-6"/>
      <point x="19" y="-15" type="curve"/>
      <point x="20" y="11" type="line"/>
      <point x="181" y="21"/>
      <point x="260" y="159"/>
      <point x="283" y="387" type="curve" smooth="yes"/>
      <point x="288" y="416"/>
      <point x="292" y="451"/>
      <point x="292" y="484" type="curve" smooth="yes"/>
      <point x="292" y="606"/>
      <point x="263" y="687"/>
      <point x="214" y="687" type="curve" smooth="yes"/>
      <point x="170" y="687"/>
      <point x="135" y="630"/>
      <point x="125" y="543" type="curve" smooth="yes"/>
      <point x="121" y="520"/>
      <point x="119" y="497"/>
      <point x="119" y="473" type="curve" smooth="yes"/>
      <point x="119" y="358"/>
      <point x="144" y="314"/>
      <point x="189" y="314" type="curve" smooth="yes"/>
      <point x="236" y="314"/>
      <point x="272" y="370"/>
      <point x="300" y="457" type="curve"/>
      <point x="300" y="420" type="line"/>
      <point x="277" y="343"/>
      <point x="230" y="279"/>
      <point x="169" y="279" type="curve" smooth="yes"/>
      <point x="94" y="279"/>
      <point x="36" y="363"/>
      <point x="36" y="479" type="curve" smooth="yes"/>
      <point x="36" y="614"/>
      <point x="108" y="720"/>
    </contour>
  </outline>
</glyph>
<glyph name="nine.midprop" format="2">
  <advance width="404"/>
  <outline>
    <contour>
      <point x="25" y="-67" type="line"/>
      <point x="189" y="-57"/>
      <point x="273" y="69"/>
      <point x="293" y="287" type="curve" smooth="yes"/>
      <point x="297" y="316"/>
      <point x="300" y="351"/>
      <point x="300" y="383" type="curve" smooth="yes"/>
      <point x="300" y="519"/>
      <point x="267" y="586"/>
      <point x="209" y="586" type="curve" smooth="yes"/>
      <point x="163" y="586"/>
      <point x="129" y="529"/>
      <point x="119" y="442" type="curve" smooth="yes"/>
      <point x="115" y="419"/>
      <point x="113" y="396"/>
      <point x="113" y="372" type="curve" smooth="yes"/>
      <point x="113" y="263"/>
      <point x="141" y="211"/>
      <point x="191" y="211" type="curve" smooth="yes"/>
      <point x="243" y="211"/>
      <point x="282" y="267"/>
      <point x="311" y="356" type="curve"/>
      <point x="311" y="318" type="line"/>
      <point x="288" y="241"/>
      <point x="237" y="177"/>
      <point x="171" y="177" type="curve" smooth="yes"/>
      <point x="91" y="177"/>
      <point x="31" y="261"/>
      <point x="31" y="378" type="curve" smooth="yes"/>
      <point x="31" y="513"/>
      <point x="105" y="619"/>
      <point x="210" y="619" type="curve" smooth="yes"/>
      <point x="309" y="619"/>
      <point x="379" y="529"/>
      <point x="379" y="360" type="curve" smooth="yes"/>
      <point x="379" y="121"/>
      <point x="255" y="-84"/>
      <point x="23" y="-93" type="curve"/>
    </contour>
  </outline>
</glyph>
<glyph name="plus.sub" format="2">
  <advance width="278"/>
  <outline>
    <contour>
      <point x="107" y="234" type="line"/>
      <point x="70" y="-74" type="line"/>
      <point x="91" y="-74" type="line"/>
      <point x="129" y="234" type="line"/>
    </contour>
    <contour>
      <point x="205" y="92" type="line"/>
      <point x="-2" y="92" type="line"/>
      <point x="-4" y="68" type="line"/>
      <point x="202" y="68" type="line"/>
    </contour>
  </outline>
</glyph>
<glyph name="plus.sup" format="2">
  <advance width="278"/>
  <outline>
    <contour>
      <point x="174" y="720" type="line"/>
      <point x="136" y="412" type="line"/>
      <point x="158" y="412" type="line"/>
      <point x="195" y="720" type="line"/>
    </contour>
    <contour>
      <point x="271" y="578" type="line"/>
      <point x="65" y="578" type="line"/>
      <point x="61" y="554" type="line"/>
      <point x="268" y="554" type="line"/>
    </contour>
  </outline>
</glyph>
<glyph name="ringhalfright" format="2">
  <advance width="351"/>
  <anchor x="150" y="566" name="_top"/>
  <outline>
    <contour>
      <point x="192" y="581" type="line"/>
      <point x="239" y="581"/>
      <point x="279" y="617"/>
      <point x="279" y="686" type="curve" smooth="yes"/>
      <point x="279" y="745"/>
      <point x="241" y="778"/>
      <point x="198" y="778" type="curve"/>
      <point x="198" y="754" type="line"/>
      <point x="220" y="754"/>
      <point x="233" y="729"/>
      <point x="233" y="686" type="curve" smooth="yes"/>
      <point x="233" y="640"/>
      <point x="217" y="606"/>
      <point x="192" y="606" type="curve"/>
    </contour>
  </outline>
</glyph>
<glyph name="ruble.proportional" format="2">
  <advance width="438"/>
  <outline>
    <contour>
      <point x="45" y="374" type="line"/>
      <point x="230" y="374" type="line" smooth="yes"/>
      <point x="313" y="374"/>
      <point x="355" y="445"/>
      <point x="355" y="546" type="curve" smooth="yes"/>
      <point x="355" y="631"/>
      <point x="323" y="677"/>
      <point x="260" y="677" type="curve" smooth="yes"/>
      <point x="219" y="677" type="line"/>
      <point x="142" y="55" type="line"/>
      <point x="140" y="35"/>
      <point x="171" y="31"/>
      <point x="194" y="31" type="curve" smooth="yes"/>
      <point x="207" y="31" type="line"/>
      <point x="203" y="0" type="line"/>
      <point x="-1" y="0" type="line"/>
      <point x="3" y="31" type="line"/>
      <point x="8" y="31" type="line" smooth="yes"/>
      <point x="34" y="31"/>
      <point x="60" y="38"/>
      <point x="64" y="64" type="curve" smooth="yes"/>
      <point x="135" y="645" type="line" smooth="yes"/>
      <point x="139" y="671"/>
      <point x="113" y="679"/>
      <point x="88" y="679" type="curve" smooth="yes"/>
      <point x="83" y="679" type="line"/>
      <point x="87" y="710" type="line"/>
      <point x="265" y="710" type="line" smooth="yes"/>
      <point x="372" y="710"/>
      <point x="435" y="648"/>
      <point x="435" y="540" type="curve" smooth="yes"/>
      <point x="435" y="427"/>
      <point x="358" y="341"/>
      <point x="228" y="341" type="curve" smooth="yes"/>
      <point x="41" y="341" type="line"/>
    </contour>
    <contour>
      <point x="287" y="188" type="line"/>
      <point x="22" y="188" type="line"/>
      <point x="27" y="221" type="line"/>
      <point x="291" y="221" type="line"/>
    </contour>
  </outline>
</glyph>
<glyph name="seven.lintab" format="2">
  <advance width="394"/>
  <outline>
    <contour>
      <point x="190" y="634" type="line" smooth="yes"/>
      <point x="132" y="634"/>
      <point x="109" y="623"/>
      <point x="96" y="570" type="curve" smooth="yes"/>
      <point x="75" y="488" type="line"/>
      <point x="51" y="488" type="line"/>
      <point x="79" y="710" type="line"/>
      <point x="413" y="710" type="line"/>
      <point x="406" y="652" type="line"/>
      <point x="298" y="488"/>
      <point x="222" y="327"/>
      <point x="173" y="0" type="curve"/>
      <point x="94" y="0" type="line"/>
      <point x="145" y="305"/>
      <point x="333" y="598"/>
      <point x="384" y="663" type="curve"/>
      <point x="382" y="634" type="line"/>
    </contour>
  </outline>
</glyph>
<glyph name="six.midprop" format="2">
  <advance width="404"/>
  <outline>
    <contour>
      <point x="380" y="714" type="line"/>
      <point x="234" y="679"/>
      <point x="137" y="537"/>
      <point x="113" y="327" type="curve" smooth="yes"/>
      <point x="107" y="293"/>
      <point x="105" y="257"/>
      <point x="105" y="221" type="curve" smooth="yes"/>
      <point x="105" y="92"/>
      <point x="139" y="23"/>
      <point x="194" y="23" type="curve" smooth="yes"/>
      <point x="243" y="23"/>
      <point x="278" y="85"/>
      <point x="291" y="184" type="curve" smooth="yes"/>
      <point x="294" y="210"/>
      <point x="296" y="236"/>
      <point x="296" y="264" type="curve" smooth="yes"/>
      <point x="296" y="361"/>
      <point x="274" y="419"/>
      <point x="222" y="419" type="curve" smooth="yes"/>
      <point x="175" y="419"/>
      <point x="132" y="364"/>
      <point x="99" y="276" type="curve"/>
      <point x="95" y="300" type="line"/>
      <point x="124" y="387"/>
      <point x="179" y="453"/>
      <point x="244" y="453" type="curve" smooth="yes"/>
      <point x="320" y="453"/>
      <point x="378" y="381"/>
      <point x="378" y="257" type="curve" smooth="yes"/>
      <point x="378" y="96"/>
      <point x="295" y="-10"/>
      <point x="194" y="-10" type="curve" smooth="yes"/>
      <point x="93" y="-10"/>
      <point x="25" y="90"/>
      <point x="25" y="244" type="curve" smooth="yes"/>
      <point x="25" y="487"/>
      <point x="167" y="706"/>
      <point x="380" y="740" type="curve"/>
    </contour>
  </outline>
</glyph>
<glyph name="six.oldprop" format="2">
  <advance width="404"/>
  <outline>
    <contour>
      <point x="379" y="714" type="curve"/>
      <point x="380" y="740" type="line"/>
      <point x="167" y="706"/>
      <point x="25" y="492"/>
      <point x="25" y="246" type="curve" smooth="yes"/>
      <point x="25" y="91"/>
      <point x="94" y="-10"/>
      <point x="194" y="-10" type="curve" smooth="yes"/>
      <point x="296" y="-10"/>
      <point x="378" y="96"/>
      <point x="378" y="257" type="curve" smooth="yes"/>
      <point x="378" y="380"/>
      <point x="320" y="451"/>
      <point x="244" y="451" type="curve" smooth="yes"/>
      <point x="180" y="451"/>
      <point x="126" y="386"/>
      <point x="95" y="300" type="curve"/>
      <point x="100" y="276" type="line"/>
      <point x="133" y="362"/>
      <point x="174" y="417"/>
      <point x="222" y="417" type="curve" smooth="yes"/>
      <point x="275" y="417"/>
      <point x="296" y="360"/>
      <point x="296" y="264" type="curve" smooth="yes"/>
      <point x="296" y="236"/>
      <point x="294" y="210"/>
      <point x="291" y="184" type="curve" smooth="yes"/>
      <point x="278" y="85"/>
      <point x="243" y="23"/>
      <point x="193" y="23" type="curve" smooth="yes"/>
      <point x="139" y="23"/>
      <point x="104" y="92"/>
      <point x="104" y="221" type="curve" smooth="yes"/>
      <point x="104" y="257"/>
      <point x="107" y="293"/>
      <point x="112" y="327" type="curve" smooth="yes"/>
      <point x="136" y="537"/>
      <point x="234" y="680"/>
    </contour>
  </outline>
</glyph>
<glyph name="sterling.altprop" format="2">
  <advance width="418"/>
  <outline>
    <contour>
      <point x="46" y="361" type="line"/>
      <point x="41" y="328" type="line"/>
      <point x="315" y="328" type="line"/>
      <point x="319" y="361" type="line"/>
    </contour>
    <contour>
      <point x="-3" y="0" type="line"/>
      <point x="346" y="0" type="line"/>
      <point x="377" y="245" type="line"/>
      <point x="352" y="245" type="line"/>
      <point x="327" y="135" type="line" smooth="yes"/>
      <point x="317" y="90"/>
      <point x="292" y="76"/>
      <point x="232" y="76" type="curve"/>
      <point x="66" y="76" type="line"/>
      <point x="53" y="46" type="line"/>
      <point x="124" y="87"/>
      <point x="187" y="186"/>
      <point x="187" y="302" type="curve" smooth="yes"/>
      <point x="187" y="377"/>
      <point x="171" y="435"/>
      <point x="171" y="508" type="curve" smooth="yes"/>
      <point x="171" y="645"/>
      <point x="213" y="689"/>
      <point x="275" y="689" type="curve" smooth="yes"/>
      <point x="323" y="689"/>
      <point x="351" y="665"/>
      <point x="364" y="634" type="curve"/>
      <point x="369" y="646"/>
      <point x="364" y="679"/>
      <point x="342" y="681" type="curve"/>
      <point x="328" y="570" type="line"/>
      <point x="397" y="570" type="line"/>
      <point x="409" y="663" type="line"/>
      <point x="391" y="688"/>
      <point x="343" y="720"/>
      <point x="275" y="720" type="curve" smooth="yes"/>
      <point x="164" y="720"/>
      <point x="89" y="642"/>
      <point x="89" y="512" type="curve" smooth="yes"/>
      <point x="89" y="419"/>
      <point x="127" y="359"/>
      <point x="127" y="265" type="curve" smooth="yes"/>
      <point x="127" y="162"/>
      <point x="69" y="89"/>
      <point x="2" y="40" type="curve"/>
    </contour>
  </outline>
</glyph>
<glyph name="thai:baht.proportional" format="2">
  <advance width="506"/>
  <outline>
    <contour>
      <point x="306" y="790" type="line"/>
      <point x="293" y="686" type="line"/>
      <point x="292" y="671" type="line"/>
      <point x="213" y="36" type="line"/>
      <point x="212" y="26" type="line"/>
      <point x="195" y="-111" type="line"/>
      <point x="223" y="-111" type="line"/>
      <point x="240" y="27" type="line"/>
      <point x="241" y="39" type="line"/>
      <point x="320" y="673" type="line"/>
      <point x="321" y="684" type="line"/>
      <point x="334" y="790" type="line"/>
    </contour>
    <contour>
      <point x="313" y="370" type="line"/>
      <point x="424" y="370"/>
      <point x="476" y="452"/>
      <point x="476" y="541" type="curve" smooth="yes"/>
      <point x="476" y="631"/>
      <point x="418" y="701"/>
      <point x="310" y="701" type="curve" smooth="yes"/>
      <point x="81" y="701" type="line"/>
      <point x="77" y="670" type="line"/>
      <point x="82" y="670" type="line" smooth="yes"/>
      <point x="111" y="670"/>
      <point x="133" y="664"/>
      <point x="129" y="632" type="curve" smooth="yes"/>
      <point x="59" y="64" type="line" smooth="yes"/>
      <point x="56" y="38"/>
      <point x="29" y="31"/>
      <point x="3" y="31" type="curve" smooth="yes"/>
      <point x="-2" y="31" type="line"/>
      <point x="-6" y="0" type="line"/>
      <point x="251" y="0" type="line" smooth="yes"/>
      <point x="395" y="0"/>
      <point x="458" y="82"/>
      <point x="458" y="206" type="curve" smooth="yes"/>
      <point x="458" y="299"/>
      <point x="401" y="370"/>
      <point x="287" y="382" type="curve"/>
      <point x="323" y="365" type="line"/>
      <point x="328" y="380" type="line"/>
    </contour>
    <contour>
      <point x="176" y="388" type="line"/>
      <point x="211" y="666" type="line"/>
      <point x="303" y="666" type="line" smooth="yes"/>
      <point x="371" y="666"/>
      <point x="400" y="618"/>
      <point x="400" y="547" type="curve" smooth="yes"/>
      <point x="400" y="472"/>
      <point x="375" y="388"/>
      <point x="284" y="388" type="curve" smooth="yes"/>
    </contour>
    <contour>
      <point x="132" y="35" type="line"/>
      <point x="172" y="355" type="line"/>
      <point x="277" y="355" type="line" smooth="yes"/>
      <point x="351" y="355"/>
      <point x="380" y="293"/>
      <point x="380" y="216" type="curve" smooth="yes"/>
      <point x="380" y="112"/>
      <point x="344" y="35"/>
      <point x="253" y="35" type="curve" smooth="yes"/>
    </contour>
  </outline>
</glyph>
<glyph name="three.linprop" format="2">
  <advance width="393"/>
  <outline>
    <contour>
      <point x="201" y="374" type="line"/>
      <point x="298" y="381"/>
      <point x="363" y="455"/>
      <point x="363" y="559" type="curve" smooth="yes"/>
      <point x="363" y="654"/>
      <point x="305" y="720"/>
      <point x="216" y="720" type="curve" smooth="yes"/>
      <point x="152" y="720"/>
      <point x="103" y="687"/>
      <point x="77" y="660" type="curve"/>
      <point x="65" y="549" type="line"/>
      <point x="135" y="549" type="line"/>
      <point x="146" y="677" type="line"/>
      <point x="132" y="668"/>
      <point x="124" y="657"/>
      <point x="123" y="647" type="curve"/>
      <point x="157" y="679"/>
      <point x="183" y="687"/>
      <point x="210" y="687" type="curve" smooth="yes"/>
      <point x="263" y="687"/>
      <point x="287" y="637"/>
      <point x="287" y="560" type="curve" smooth="yes"/>
      <point x="287" y="455"/>
      <point x="250" y="389"/>
      <point x="164" y="389" type="curve" smooth="yes"/>
      <point x="122" y="389" type="line"/>
      <point x="118" y="358" type="line"/>
      <point x="157" y="358" type="line" smooth="yes"/>
      <point x="246" y="358"/>
      <point x="270" y="294"/>
      <point x="270" y="210" type="curve" smooth="yes"/>
      <point x="270" y="106"/>
      <point x="236" y="24"/>
      <point x="165" y="24" type="curve" smooth="yes"/>
      <point x="89" y="24"/>
      <point x="45" y="89"/>
      <point x="26" y="166" type="curve"/>
      <point x="4" y="148" type="line"/>
      <point x="27" y="55"/>
      <point x="84" y="-10"/>
      <point x="173" y="-10" type="curve" smooth="yes"/>
      <point x="277" y="-10"/>
      <point x="350" y="72"/>
      <point x="350" y="200" type="curve" smooth="yes"/>
      <point x="350" y="284"/>
      <point x="308" y="366"/>
      <point x="201" y="381" type="curve"/>
      <point x="211" y="369" type="line"/>
      <point x="216" y="385" type="line"/>
    </contour>
  </outline>
</glyph>
<glyph name="tilde.uc" format="2">
  <advance width="351"/>
  <anchor x="163" y="694" name="_top"/>
  <outline>
    <contour>
      <point x="244" y="765" type="curve" smooth="yes"/>
      <point x="283" y="765"/>
      <point x="309" y="804"/>
      <point x="322" y="871" type="curve"/>
      <point x="300" y="884" type="line"/>
      <point x="293" y="846"/>
      <point x="281" y="827"/>
      <point x="263" y="827" type="curve" smooth="yes"/>
      <point x="228" y="827"/>
      <point x="202" y="887"/>
      <point x="162" y="887" type="curve" smooth="yes"/>
      <point x="122" y="887"/>
      <point x="100" y="851"/>
      <point x="89" y="780" type="curve"/>
      <point x="110" y="768" type="line"/>
      <point x="115" y="806"/>
      <point x="128" y="826"/>
      <point x="145" y="826" type="curve" smooth="yes"/>
      <point x="174" y="826"/>
      <point x="202" y="765"/>
    </contour>
  </outline>
</glyph>
<glyph name="two.lintab" format="2">
  <advance width="394"/>
  <outline>
    <contour>
      <point x="-9" y="0" type="line"/>
      <point x="-1" y="56" type="line"/>
      <point x="168" y="225"/>
      <point x="283" y="375"/>
      <point x="283" y="555" type="curve" smooth="yes"/>
      <point x="283" y="641"/>
      <point x="254" y="689"/>
      <point x="204" y="689" type="curve" smooth="yes"/>
      <point x="172" y="689"/>
      <point x="149" y="679"/>
      <point x="114" y="646" type="curve"/>
      <point x="115" y="664"/>
      <point x="127" y="675"/>
      <point x="139" y="673" type="curve"/>
      <point x="125" y="549" type="line"/>
      <point x="55" y="549" type="line"/>
      <point x="67" y="653" type="line"/>
      <point x="92" y="682"/>
      <point x="144" y="720"/>
      <point x="209" y="720" type="curve" smooth="yes"/>
      <point x="312" y="720"/>
      <point x="363" y="657"/>
      <point x="363" y="547" type="curve" smooth="yes"/>
      <point x="363" y="372"/>
      <point x="201" y="212"/>
      <point x="38" y="52" type="curve"/>
      <point x="42" y="76" type="line"/>
      <point x="212" y="76" type="line" smooth="yes"/>
      <point x="272" y="76"/>
      <point x="295" y="89"/>
      <point x="306" y="131" type="curve" smooth="yes"/>
      <point x="325" y="210" type="line"/>
      <point x="350" y="210" type="line"/>
      <point x="323" y="0" type="line"/>
    </contour>
  </outline>
</glyph>
<glyph name="two.oldprop" format="2">
  <advance width="395"/>
  <outline>
    <contour>
      <point x="345" y="76" type="line"/>
      <point x="54" y="76" type="line"/>
      <point x="51" y="51" type="line"/>
      <point x="223" y="162"/>
      <point x="356" y="251"/>
      <point x="356" y="398" type="curve" smooth="yes"/>
      <point x="356" y="499"/>
      <point x="306" y="558"/>
      <point x="208" y="558" type="curve" smooth="yes"/>
      <point x="146" y="558"/>
      <point x="97" y="521"/>
      <point x="70" y="494" type="curve"/>
      <point x="58" y="390" type="line"/>
      <point x="127" y="390" type="line"/>
      <point x="141" y="514" type="line"/>
      <point x="131" y="508"/>
      <point x="118" y="496"/>
      <point x="118" y="486" type="curve"/>
      <point x="150" y="517"/>
      <point x="174" y="527"/>
      <point x="201" y="527" type="curve" smooth="yes"/>
      <point x="251" y="527"/>
      <point x="276" y="482"/>
      <point x="276" y="409" type="curve" smooth="yes"/>
      <point x="276" y="253"/>
      <point x="187" y="187"/>
      <point x="11" y="56" type="curve"/>
      <point x="4" y="0" type="line"/>
      <point x="335" y="0" type="line"/>
    </contour>
  </outline>
</glyph>
<glyph name="w.alt" format="2">
  <advance width="581"/>
  <outline>
    <contour>
      <point x="46" y="518" type="line"/>
      <point x="42" y="488" type="line"/>
      <point x="50" y="486" type="line" smooth="yes"/>
      <point x="80" y="477"/>
      <point x="94" y="470"/>
      <point x="91" y="442" type="curve" smooth="yes"/>
      <point x="67" y="202" type="line" smooth="yes"/>
      <point x="63" y="161"/>
      <point x="61" y="135"/>
      <point x="61" y="114" type="curve" smooth="yes"/>
      <point x="61" y="35"/>
      <point x="91" y="-10"/>
      <point x="150" y="-10" type="curve" smooth="yes"/>
      <point x="203" y="-10"/>
      <point x="263" y="60"/>
      <point x="297" y="205" type="curve"/>
      <point x="278" y="239" type="line"/>
      <point x="257" y="110"/>
      <point x="210" y="35"/>
      <point x="169" y="35" type="curve" smooth="yes"/>
      <point x="146" y="35"/>
      <point x="137" y="58"/>
      <point x="137" y="105" type="curve" smooth="yes"/>
      <point x="137" y="128"/>
      <point x="140" y="155"/>
      <point x="144" y="193" type="curve" smooth="yes"/>
      <point x="179" y="518" type="line"/>
    </contour>
    <contour>
      <point x="308" y="518" type="line"/>
      <point x="274" y="200" type="line" smooth="yes"/>
      <point x="270" y="161"/>
      <point x="267" y="135"/>
      <point x="267" y="114" type="curve" smooth="yes"/>
      <point x="267" y="35"/>
      <point x="298" y="-10"/>
      <point x="360" y="-10" type="curve" smooth="yes"/>
      <point x="447" y="-10"/>
      <point x="563" y="185"/>
      <point x="564" y="518" type="curve"/>
      <point x="496" y="518" type="line"/>
      <point x="539" y="240"/>
      <point x="448" y="35"/>
      <point x="378" y="35" type="curve" smooth="yes"/>
      <point x="353" y="35"/>
      <point x="343" y="59"/>
      <point x="343" y="106" type="curve" smooth="yes"/>
      <point x="343" y="128"/>
      <point x="346" y="155"/>
      <point x="350" y="193" type="curve" smooth="yes"/>
      <point x="386" y="518" type="line"/>
    </contour>
  </outline>
</glyph>
<glyph name="w.alt2" format="2">
  <advance width="565"/>
  <outline>
    <contour>
      <point x="172" y="0" type="line"/>
      <point x="220" y="90"/>
      <point x="280" y="265"/>
      <point x="312" y="394" type="curve"/>
      <point x="298" y="458" type="line"/>
      <point x="276" y="328"/>
      <point x="211" y="134"/>
      <point x="158" y="22" type="curve"/>
      <point x="170" y="17" type="line"/>
      <point x="141" y="518" type="line"/>
      <point x="19" y="518" type="line"/>
      <point x="15" y="488" type="line"/>
      <point x="23" y="486" type="line" smooth="yes"/>
      <point x="54" y="477"/>
      <point x="68" y="468"/>
      <point x="71" y="424" type="curve" smooth="yes"/>
      <point x="101" y="0" type="line"/>
    </contour>
    <contour>
      <point x="376" y="0" type="line"/>
      <point x="470" y="142"/>
      <point x="550" y="355"/>
      <point x="561" y="518" type="curve"/>
      <point x="494" y="518" type="line"/>
      <point x="500" y="360"/>
      <point x="460" y="174"/>
      <point x="361" y="20" type="curve"/>
      <point x="376" y="12" type="line"/>
      <point x="351" y="518" type="line"/>
      <point x="275" y="518" type="line"/>
      <point x="308" y="0" type="line"/>
    </contour>
  </outline>
</glyph>
<glyph name="whiteuppointingtriangle" format="2">
  <advance width="453"/>
  <outline>
    <contour>
      <point x="422" y="91" type="line"/>
      <point x="233" y="464" type="line"/>
      <point x="45" y="91" type="line"/>
    </contour>
    <contour>
      <point x="357" y="125" type="line"/>
      <point x="362" y="141" type="line"/>
      <point x="106" y="141" type="line"/>
      <point x="110" y="125" type="line"/>
      <point x="238" y="380" type="line"/>
      <point x="230" y="380" type="line"/>
    </contour>
  </outline>
</glyph>
<glyph name="yen.proportional" format="2">
  <advance width="434"/>
  <outline>
    <contour>
      <point x="45" y="216" type="line"/>
      <point x="40" y="183" type="line"/>
      <point x="362" y="183" type="line"/>
      <point x="367" y="216" type="line"/>
    </contour>
    <contour>
      <point x="61" y="346" type="line"/>
      <point x="56" y="313" type="line"/>
      <point x="378" y="313" type="line"/>
      <point x="383" y="346" type="line"/>
    </contour>
    <contour>
      <point x="250" y="316" type="line"/>
      <point x="401" y="614" type="line" smooth="yes"/>
      <point x="422" y="660"/>
      <point x="438" y="679"/>
      <point x="457" y="679" type="curve" smooth="yes"/>
      <point x="461" y="679" type="line"/>
      <point x="466" y="710" type="line"/>
      <point x="335" y="710" type="line"/>
      <point x="331" y="679" type="line"/>
      <point x="348" y="679" type="line" smooth="yes"/>
      <point x="379" y="679"/>
      <point x="388" y="669"/>
      <point x="388" y="656" type="curve"/>
      <point x="237" y="351" type="line"/>
      <point x="256" y="351" type="line"/>
      <point x="172" y="666" type="line"/>
      <point x="173" y="675"/>
      <point x="199" y="679"/>
      <point x="220" y="679" type="curve" smooth="yes"/>
      <point x="231" y="679" type="line"/>
      <point x="235" y="710" type="line"/>
      <point x="61" y="710" type="line"/>
      <point x="56" y="679" type="line"/>
      <point x="59" y="679" type="line" smooth="yes"/>
      <point x="76" y="679"/>
      <point x="87" y="676"/>
      <point x="94" y="650" type="curve" smooth="yes"/>
      <point x="188" y="312" type="line"/>
    </contour>
    <contour>
      <point x="264" y="350" type="line"/>
      <point x="182" y="351" type="line"/>
      <point x="146" y="66" type="line" smooth="yes"/>
      <point x="142" y="37"/>
      <point x="117" y="31"/>
      <point x="89" y="31" type="curve" smooth="yes"/>
      <point x="78" y="31" type="line"/>
      <point x="74" y="0" type="line"/>
      <point x="282" y="0" type="line"/>
      <point x="287" y="31" type="line"/>
      <point x="275" y="31" type="line" smooth="yes"/>
      <point x="248" y="31"/>
      <point x="224" y="37"/>
      <point x="227" y="66" type="curve" smooth="yes"/>
    </contour>
  </outline>
</glyph>
<glyph name="zero.midprop" format="2">
  <advance width="418"/>
  <outline>
    <contour>
      <point x="183" y="-10" type="curve" smooth="yes"/>
      <point x="318" y="-10"/>
      <point x="396" y="176"/>
      <point x="396" y="358" type="curve" smooth="yes"/>
      <point x="396" y="518"/>
      <point x="333" y="619"/>
      <point x="235" y="619" type="curve" smooth="yes"/>
      <point x="100" y="619"/>
      <point x="21" y="432"/>
      <point x="21" y="250" type="curve" smooth="yes"/>
      <point x="21" y="90"/>
      <point x="87" y="-10"/>
    </contour>
    <contour>
      <point x="182" y="21" type="curve" smooth="yes"/>
      <point x="126" y="21"/>
      <point x="101" y="96"/>
      <point x="101" y="218" type="curve" smooth="yes"/>
      <point x="101" y="273"/>
      <point x="105" y="332"/>
      <point x="115" y="387" type="curve" smooth="yes"/>
      <point x="135" y="503"/>
      <point x="176" y="588"/>
      <point x="236" y="588" type="curve" smooth="yes"/>
      <point x="292" y="588"/>
      <point x="317" y="513"/>
      <point x="317" y="390" type="curve" smooth="yes"/>
      <point x="317" y="337"/>
      <point x="312" y="282"/>
      <point x="303" y="228" type="curve" smooth="yes"/>
      <point x="283" y="110"/>
      <point x="241" y="21"/>
    </contour>
  </outline>
</glyph>
<glyph name="zero.oldtab" format="2">
  <advance width="393"/>
  <outline>
    <contour>
      <point x="177" y="-10" type="curve" smooth="yes"/>
      <point x="309" y="-10"/>
      <point x="373" y="162"/>
      <point x="373" y="314" type="curve" smooth="yes"/>
      <point x="373" y="466"/>
      <point x="307" y="558"/>
      <point x="218" y="558" type="curve" smooth="yes"/>
      <point x="85" y="558"/>
      <point x="21" y="387"/>
      <point x="21" y="234" type="curve" smooth="yes"/>
      <point x="21" y="81"/>
      <point x="87" y="-10"/>
    </contour>
    <contour>
      <point x="177" y="21" type="curve" smooth="yes"/>
      <point x="129" y="21"/>
      <point x="100" y="84"/>
      <point x="100" y="216" type="curve" smooth="yes"/>
      <point x="100" y="253"/>
      <point x="103" y="293"/>
      <point x="110" y="330" type="curve" smooth="yes"/>
      <point x="127" y="442"/>
      <point x="163" y="527"/>
      <point x="218" y="527" type="curve" smooth="yes"/>
      <point x="269" y="527"/>
      <point x="294" y="461"/>
      <point x="294" y="332" type="curve" smooth="yes"/>
      <point x="294" y="299"/>
      <point x="292" y="265"/>
      <point x="287" y="231" type="curve" smooth="yes"/>
      <point x="271" y="113"/>
      <point x="234" y="21"/>
    </contour>
  </outline>
</glyph>
<glyph name="zero.slashlinprop" format="2">
  <advance width="423"/>
  <outline>
    <contour>
      <point x="82" y="185" type="line"/>
      <point x="345" y="487" type="line"/>
      <point x="340" y="519" type="line"/>
      <point x="74" y="215" type="line"/>
    </contour>
    <contour>
      <point x="404" y="438" type="curve" smooth="yes"/>
      <point x="404" y="620"/>
      <point x="340" y="720"/>
      <point x="245" y="720" type="curve" smooth="yes"/>
      <point x="103" y="720"/>
      <point x="21" y="502"/>
      <point x="21" y="272" type="curve" smooth="yes"/>
      <point x="21" y="90"/>
      <point x="84" y="-10"/>
      <point x="179" y="-10" type="curve" smooth="yes"/>
      <point x="320" y="-10"/>
      <point x="404" y="208"/>
    </contour>
    <contour>
      <point x="179" y="21" type="curve" smooth="yes"/>
      <point x="127" y="21"/>
      <point x="99" y="77"/>
      <point x="99" y="241" type="curve" smooth="yes"/>
      <point x="99" y="282"/>
      <point x="101" y="324"/>
      <point x="106" y="367" type="curve" smooth="yes"/>
      <point x="125" y="550"/>
      <point x="174" y="689"/>
      <point x="245" y="689" type="curve" smooth="yes"/>
      <point x="297" y="689"/>
      <point x="325" y="634"/>
      <point x="325" y="469" type="curve" smooth="yes"/>
      <point x="325" y="431"/>
      <point x="323" y="390"/>
      <point x="317" y="348" type="curve" smooth="yes"/>
      <point x="301" y="167"/>
      <point x="253" y="21"/>
    </contour>
  </outline>
</glyph>
